<svg width="47" height="39" viewBox="0 0 47 39" fill="none" xmlns="http://www.w3.org/2000/svg">
<g clip-path="url(#clip0_6_55)">
<path fill-rule="evenodd" clip-rule="evenodd" d="M46.344 6.4704V32.5577C46.344 34.2083 45.6809 35.7912 44.5006 36.9583C43.3203 38.1255 41.7195 38.7811 40.0503 38.7811H36.2055L23.1777 19.9186L34.901 2.95135C38.3911 -2.07262 46.344 0.360156 46.344 6.4704Z" fill="#FFD600"/>
<path fill-rule="evenodd" clip-rule="evenodd" d="M23.1775 19.9187L36.2053 38.7529H10.144L23.1775 19.9187Z" fill="#FFD600"/>
<path fill-rule="evenodd" clip-rule="evenodd" d="M23.1777 19.9185L10.1384 38.7528H6.25929C5.43683 38.7528 4.62243 38.5925 3.86264 38.2811C3.10286 37.9697 2.41258 37.5133 1.83128 36.9379C1.24998 36.3626 0.789041 35.6796 0.474819 34.928C0.160597 34.1764 -0.000749179 33.371 2.61517e-06 32.5577V6.47034C2.61517e-06 0.365755 7.95284 -2.06703 11.4429 2.95129L23.1777 19.9185Z" fill="#000000"/>
</g>
<defs>
<clipPath id="clip0_6_55">
<rect width="46.3496" height="38.5058" fill="white" transform="translate(0 0.24707)"/>
</clipPath>
</defs>
</svg>
