<svg width="270" height="85" viewBox="0 0 270 85" fill="none" xmlns="http://www.w3.org/2000/svg">
<g clip-path="url(#clip0_19_155)">
<path d="M71.1288 61.8175C72.3719 62.0272 73.3804 62.6213 73.3804 63.8744C73.3782 64.2909 73.2597 64.6985 73.0383 65.0513C72.8169 65.4041 72.5014 65.6881 72.1273 65.8713C71.441 66.2377 70.6678 66.4103 69.8908 66.3705H66.7107V66.011C67.809 65.9062 67.8739 65.7914 67.8739 64.768V59.606C67.8739 58.5326 67.7591 58.4428 66.7107 58.3529V57.9885H70.0954C70.7917 57.934 71.4882 58.0924 72.0924 58.4428C72.3308 58.6004 72.5255 58.8158 72.6581 59.069C72.7908 59.3221 72.8572 59.6048 72.8512 59.8905C72.8286 60.3605 72.6451 60.8085 72.3316 61.1593C72.018 61.5101 71.5934 61.7425 71.1288 61.8175ZM69.6312 61.6628C71.049 61.6628 71.6281 61.0937 71.6281 60.0353C71.6281 59.1317 71.0739 58.4328 69.8309 58.4328C69.5822 58.4086 69.3317 58.4536 69.107 58.5626C69.0021 58.6425 68.9672 58.7822 68.9672 59.1966V61.6628H69.6312ZM68.9722 64.738C68.9722 65.6716 69.1918 65.9012 70.1054 65.9012C71.1039 65.9012 72.1023 65.3571 72.1023 64.0042C72.1023 62.6512 71.1738 62.1171 69.6062 62.1171H68.9872L68.9722 64.738Z" fill="#2D5155"/>
<path d="M85.5964 58.3329C84.7826 58.3829 84.4881 58.5875 84.4631 59.1816C84.4631 59.4812 84.4232 60.0253 84.4232 61.2135V62.6013C84.4232 63.9193 84.2684 64.9277 83.5196 65.7165C83.2003 66.0081 82.8249 66.2316 82.4163 66.3732C82.0077 66.5149 81.5746 66.5717 81.1433 66.5402C80.3905 66.5762 79.6462 66.3678 79.0216 65.9461C78.2478 65.352 77.8733 64.4485 77.8733 62.9508V59.6559C77.8733 58.4927 77.7685 58.4178 76.7351 58.3279V57.9635H80.1348V58.3279C79.1014 58.3928 78.9966 58.4927 78.9966 59.6559V62.8859C78.9966 64.7729 79.8902 65.8063 81.4378 65.8063C83.275 65.8063 83.8541 64.6681 83.8541 62.5264V61.2085C83.8541 60.0203 83.8141 59.5261 83.7892 59.1766C83.7492 58.5975 83.4547 58.3779 82.4962 58.3279V57.9635H85.5964V58.3329Z" fill="#2D5155"/>
<path d="M93.3096 59.9305C93.0899 59.0818 92.7305 58.2431 91.5124 58.2431C91.3273 58.2329 91.1422 58.2628 90.9697 58.3307C90.7973 58.3987 90.6415 58.503 90.513 58.6367C90.3846 58.7703 90.2865 58.9302 90.2255 59.1052C90.1645 59.2802 90.142 59.4664 90.1595 59.6509C90.1595 60.5395 90.7286 60.9938 91.7969 61.548C93.3495 62.3467 94.0185 62.9458 94.0185 64.1689C94.0185 65.5268 92.8453 66.5602 91.1779 66.5602C90.4915 66.5461 89.8139 66.4021 89.181 66.1359C89.0276 65.4957 88.911 64.8473 88.8315 64.1939L89.2309 64.094C89.4905 64.9577 90.0596 66.0909 91.4026 66.0909C91.6023 66.1025 91.8022 66.0717 91.9891 66.0006C92.1761 65.9294 92.3459 65.8195 92.4874 65.6781C92.6288 65.5366 92.7387 65.3668 92.8099 65.1798C92.8811 64.9929 92.9118 64.793 92.9002 64.5932C92.9002 63.5948 92.3711 63.1954 91.2378 62.5963C89.8799 61.8625 89.1161 61.2385 89.1161 60.0403C89.1161 58.8422 90.0746 57.8038 91.777 57.8038C92.353 57.8266 92.9251 57.9086 93.4843 58.0484C93.5343 58.5127 93.5892 59.0468 93.689 59.8706L93.3096 59.9305Z" fill="#2D5155"/>
<path d="M97.7126 66.3655V66.006C98.776 65.8912 98.8758 65.8363 98.8758 64.738V59.606C98.8758 58.4927 98.776 58.4428 97.7126 58.3279V57.9635H101.177V58.3279C100.104 58.4428 99.9991 58.4927 99.9991 59.606V64.733C99.9991 65.8463 100.104 65.8862 101.177 66.001V66.3605L97.7126 66.3655Z" fill="#2D5155"/>
<path d="M113.992 58.3329C113.164 58.4228 112.894 58.5526 112.854 59.1466C112.854 59.556 112.814 60.1002 112.814 61.3033V66.4853H112.315L106.794 59.7258V62.9557C106.794 64.1189 106.834 64.698 106.858 65.0725C106.888 65.7364 107.208 65.9261 108.141 66.006V66.3655H105.001V66.006C105.8 65.9411 106.11 65.7464 106.165 65.1124C106.2 64.698 106.229 64.114 106.229 62.9458V59.6509C106.246 59.4984 106.231 59.3442 106.187 59.1975C106.142 59.0508 106.068 58.9147 105.97 58.7972C105.725 58.4727 105.471 58.3978 104.817 58.3329V57.9685H106.744L112.235 64.4584V61.3033C112.235 60.1002 112.21 59.546 112.17 59.1566C112.13 58.5775 111.836 58.3978 110.802 58.3329V57.9685H113.992V58.3329Z" fill="#2D5155"/>
<path d="M124.311 64.3136C124.237 64.6481 123.887 65.9811 123.757 66.3655H117.477V66.006C118.68 65.9162 118.77 65.7963 118.77 64.738V59.6359C118.77 58.4877 118.63 58.4228 117.657 58.3329V57.9685H121.611C122.829 57.9685 123.333 57.9685 123.488 57.9685C123.488 58.293 123.553 59.2615 123.603 59.9654L123.213 60.0303C123.126 59.6832 122.997 59.3479 122.829 59.0318C122.619 58.6075 122.33 58.5326 121.546 58.5326H120.323C119.918 58.5326 119.893 58.5675 119.893 58.942V61.7975H121.326C122.3 61.7975 122.359 61.6078 122.514 60.7292H122.919V63.3901H122.514C122.349 62.4565 122.245 62.3267 121.316 62.3267H119.893V64.9027C119.893 65.8063 120.178 65.9012 120.827 65.9012H122.025C122.814 65.9012 122.944 65.7864 123.228 65.4469C123.509 65.0809 123.743 64.6818 123.927 64.2587L124.311 64.3136Z" fill="#2D5155"/>
<path d="M132.284 59.9305C132.064 59.0818 131.7 58.2431 130.487 58.2431C130.301 58.2322 130.116 58.2615 129.943 58.3291C129.769 58.3967 129.613 58.501 129.484 58.6347C129.355 58.7684 129.256 58.9285 129.195 59.1039C129.134 59.2793 129.111 59.4659 129.129 59.6509C129.129 60.5395 129.698 60.9938 130.771 61.548C132.319 62.3467 132.993 62.9458 132.993 64.1689C132.993 65.5268 131.815 66.5602 130.152 66.5602C129.466 66.5466 128.788 66.4026 128.155 66.1359C128.002 65.4957 127.885 64.8473 127.806 64.1939L128.205 64.094C128.465 64.9577 129.034 66.0909 130.377 66.0909C130.577 66.1025 130.777 66.0717 130.964 66.0006C131.15 65.9294 131.32 65.8195 131.462 65.6781C131.603 65.5366 131.713 65.3668 131.784 65.1798C131.855 64.9929 131.886 64.793 131.875 64.5932C131.875 63.5948 131.345 63.1954 130.207 62.5963C128.849 61.8625 128.09 61.2385 128.09 60.0403C128.09 58.8422 129.044 57.8038 130.751 57.8038C131.326 57.8265 131.896 57.9085 132.454 58.0484C132.509 58.5127 132.559 59.0468 132.663 59.8706L132.284 59.9305Z" fill="#2D5155"/>
<path d="M141.325 59.9305C141.105 59.0818 140.741 58.2431 139.528 58.2431C139.342 58.2321 139.157 58.2614 138.984 58.329C138.811 58.3966 138.655 58.501 138.526 58.6348C138.398 58.7687 138.3 58.9288 138.239 59.1043C138.178 59.2797 138.156 59.4662 138.175 59.6509C138.175 60.5395 138.739 60.9938 139.812 61.548C141.365 62.3467 142.034 62.9458 142.034 64.1689C142.034 65.5268 140.861 66.5602 139.193 66.5602C138.507 66.5461 137.829 66.4021 137.196 66.1359C137.043 65.4957 136.926 64.8473 136.847 64.1939L137.246 64.094C137.506 64.9577 138.075 66.0909 139.418 66.0909C139.618 66.1025 139.818 66.0717 140.005 66.0006C140.192 65.9294 140.361 65.8195 140.503 65.6781C140.644 65.5366 140.754 65.3668 140.825 65.1798C140.896 64.9929 140.927 64.793 140.916 64.5932C140.916 63.5948 140.386 63.1954 139.253 62.5963C137.895 61.8625 137.131 61.2385 137.131 60.0403C137.131 58.8422 138.09 57.8038 139.792 57.8038C140.368 57.8271 140.94 57.9091 141.5 58.0484C141.55 58.5127 141.6 59.0468 141.704 59.8706L141.325 59.9305Z" fill="#2D5155"/>
<path d="M155.728 66.3655V66.006C156.566 65.9012 156.671 65.7714 156.491 65.2821C156.312 64.7929 156.062 64.1339 155.792 63.3202H153.002C152.797 63.8993 152.602 64.4035 152.423 64.9327C152.138 65.7714 152.318 65.8762 153.376 66.006V66.3655H150.381V66.006C151.195 65.9012 151.404 65.8113 151.854 64.6481L154.529 57.8636L154.944 57.7888C155.758 59.9953 156.646 62.4415 157.44 64.6731C157.854 65.7963 157.969 65.9012 158.888 66.006V66.3655H155.728ZM154.435 59.4811C154.02 60.5894 153.581 61.7676 153.196 62.786H155.613L154.435 59.4811Z" fill="#2D5155"/>
<path d="M165.613 57.9685C167.43 57.9685 168.583 58.3329 169.382 59.0917C169.744 59.453 170.029 59.8849 170.218 60.3606C170.407 60.8364 170.496 61.3458 170.48 61.8574C170.505 62.5257 170.372 63.1906 170.092 63.7978C169.812 64.4051 169.392 64.9376 168.867 65.352C167.869 66.0859 166.631 66.3505 165.043 66.3505H162.018V65.991C163.131 65.8862 163.181 65.7963 163.181 64.738V59.6059C163.181 58.4977 163.027 58.4427 162.018 58.3429V57.9785L165.613 57.9685ZM164.305 64.6481C164.305 65.6166 164.719 65.8912 165.687 65.8912C168.014 65.8912 169.182 64.2987 169.182 62.0372C169.182 60.6294 168.683 59.541 167.684 58.937C167.009 58.5657 166.242 58.3926 165.473 58.4377C165.13 58.4019 164.783 58.4643 164.474 58.6175C164.354 58.6924 164.305 58.8371 164.305 59.3413V64.6481Z" fill="#2D5155"/>
<path d="M182.402 58.3329C181.538 58.4477 181.318 58.5626 180.854 59.7258C180.504 60.5794 178.722 64.9077 178.088 66.5103H177.664C176.9 64.4285 175.787 61.4082 175.053 59.4961C174.688 58.5376 174.469 58.4078 173.685 58.3329V57.9685H176.965V58.3329C176.006 58.4328 175.967 58.5875 176.136 59.0668C176.461 60.0103 177.404 62.5614 178.218 64.728C178.902 63.0606 179.756 60.9539 180.36 59.3264C180.644 58.5776 180.49 58.4577 179.431 58.3279V57.9635H182.402V58.3329Z" fill="#2D5155"/>
<path d="M185.492 66.3655V66.006C186.55 65.8912 186.655 65.8363 186.655 64.738V59.606C186.655 58.4927 186.55 58.4428 185.492 58.3279V57.9635H188.951V58.3279C187.878 58.4428 187.778 58.4927 187.778 59.606V64.733C187.778 65.8463 187.878 65.8862 188.951 66.001V66.3605L185.492 66.3655Z" fill="#2D5155"/>
<path d="M197.104 59.9305C196.884 59.0818 196.524 58.2431 195.311 58.2431C195.126 58.2322 194.94 58.2615 194.767 58.3291C194.594 58.3967 194.438 58.501 194.309 58.6347C194.18 58.7684 194.081 58.9285 194.02 59.1039C193.958 59.2793 193.936 59.4659 193.953 59.6509C193.953 60.5395 194.523 60.9938 195.591 61.548C197.143 62.3467 197.817 62.9458 197.817 64.1689C197.817 65.5268 196.639 66.5602 194.972 66.5602C194.285 66.5461 193.608 66.4021 192.975 66.1359C192.875 65.7714 192.72 64.8928 192.625 64.1939L193.03 64.094C193.284 64.9577 193.854 66.0909 195.197 66.0909C195.396 66.1025 195.596 66.0717 195.783 66.0006C195.97 65.9294 196.14 65.8195 196.281 65.6781C196.423 65.5366 196.533 65.3668 196.604 65.1798C196.675 64.9929 196.706 64.793 196.694 64.5932C196.694 63.5948 196.165 63.1954 195.027 62.5963C193.669 61.8625 192.905 61.2385 192.905 60.0403C192.905 58.8422 193.864 57.8038 195.566 57.8038C196.142 57.8266 196.714 57.9086 197.273 58.0484C197.323 58.5127 197.378 59.0468 197.478 59.8706L197.104 59.9305Z" fill="#2D5155"/>
<path d="M206.12 57.7888C206.677 57.7839 207.23 57.8914 207.745 58.1049C208.26 58.3185 208.727 58.6336 209.117 59.0316C209.508 59.4295 209.814 59.9021 210.018 60.4211C210.222 60.9401 210.319 61.4948 210.303 62.0522C210.303 64.8279 208.421 66.5452 206.04 66.5452C205.471 66.5562 204.907 66.4519 204.38 66.2387C203.853 66.0255 203.375 65.7078 202.974 65.3047C202.573 64.9016 202.258 64.4216 202.048 63.8934C201.838 63.3653 201.737 62.8001 201.751 62.2319C201.733 61.6498 201.833 61.07 202.045 60.5276C202.257 59.9853 202.577 59.4915 202.985 59.0762C203.394 58.6609 203.882 58.3327 204.421 58.1114C204.959 57.8902 205.537 57.7804 206.12 57.7888ZM205.86 58.288C204.412 58.288 203.094 59.5011 203.094 61.9174C203.094 64.3336 204.412 66.0909 206.249 66.0909C207.812 66.0909 208.985 64.9277 208.985 62.4316C208.985 59.7008 207.552 58.268 205.86 58.268V58.288Z" fill="#2D5155"/>
<path d="M221.8 66.4703C221.636 66.4703 221.491 66.4703 221.301 66.4454C220.9 66.4509 220.504 66.3509 220.154 66.1556C219.803 65.9602 219.51 65.6762 219.304 65.3321C218.805 64.6731 218.361 63.8344 217.946 63.2004C217.687 62.786 217.522 62.7012 216.863 62.7012H216.409V64.728C216.409 65.8263 216.553 65.8912 217.587 65.9961V66.3555H214.137V65.9961C215.206 65.8812 215.3 65.8263 215.3 64.728V59.606C215.3 58.5077 215.156 58.4677 214.137 58.3529V57.9885H217.432C218.149 57.9279 218.868 58.0807 219.499 58.4278C219.781 58.6111 220.011 58.8651 220.165 59.1646C220.319 59.4641 220.393 59.7987 220.378 60.1351C220.378 61.2434 219.664 61.9423 218.71 62.3567C218.94 62.7561 219.499 63.6197 219.883 64.2038C220.191 64.6711 220.533 65.115 220.907 65.5318C221.152 65.8239 221.482 66.0331 221.85 66.1309L221.8 66.4703ZM217.033 62.2718C217.537 62.3234 218.042 62.1904 218.456 61.8974C218.697 61.7134 218.889 61.4716 219.013 61.1942C219.137 60.9168 219.189 60.6127 219.164 60.3099C219.164 58.927 218.251 58.4228 217.252 58.4228C217.016 58.3949 216.778 58.4402 216.568 58.5526C216.454 58.6425 216.414 58.7723 216.414 59.1067V62.2718H217.033Z" fill="#2D5155"/>
<path d="M51.5391 40.2409C50.9101 38.5486 49.1878 37.5302 47.4904 36.9161C45.8947 36.3401 44.2224 36.0036 42.5281 35.9177C42.1285 35.8735 41.7329 35.7984 41.3449 35.693C41.5544 34.9272 41.8668 34.1933 42.2735 33.5114C42.4832 33.1919 42.7378 32.9073 42.9525 32.5928C43.4587 31.874 43.756 31.029 43.8111 30.1516C43.8511 29.3478 43.7213 28.4442 44.2504 27.8402C44.7796 27.2361 45.6483 27.2461 46.4221 27.276C46.4221 27.6355 46.3122 27.945 46.3122 28.3044C47.6452 28.2695 49.063 28.3044 50.3959 28.1896C50.4303 27.4951 50.3766 26.7989 50.2362 26.1178C50.1219 25.423 49.7492 24.7971 49.1928 24.3656C48.8076 24.1093 48.3717 23.939 47.9148 23.8663C46.2697 23.5829 44.578 23.9248 43.1721 24.8248C42.0542 25.5802 41.1291 26.5873 40.4713 27.7653C39.8228 28.9379 39.2798 30.1658 38.8488 31.4346C38.3496 30.2514 36.8519 29.5475 35.5439 29.4377C34.236 29.3279 32.9929 29.7023 31.7348 29.9719C30.4768 30.2414 29.1339 30.4212 27.9158 30.0068C27.4778 29.8709 27.0857 29.617 26.7825 29.2729C26.6333 29.099 26.53 28.8905 26.482 28.6664C26.4341 28.4423 26.443 28.2097 26.5079 27.9899C28.3501 27.94 30.2771 27.8002 32.1143 27.7503C32.257 27.7632 32.3995 27.7223 32.5136 27.6355C32.5927 27.5399 32.6368 27.4201 32.6384 27.296C32.6634 26.987 32.6634 26.6765 32.6384 26.3674C31.7468 26.3683 30.8583 26.261 29.9925 26.0479C29.718 25.983 29.3935 25.8632 29.3435 25.5887C29.3362 25.4264 29.3837 25.2664 29.4783 25.1344L29.7479 24.9147C30.8911 24.3556 32.4288 24.9496 33.4372 24.1758C33.556 24.097 33.6527 23.9891 33.7182 23.8624C33.7838 23.7358 33.8159 23.5945 33.8116 23.452C33.7865 23.3027 33.7248 23.1621 33.6319 23.0426C32.9056 22.0927 31.9826 21.3111 30.9261 20.7512C29.8682 20.1963 28.9112 19.4672 28.0955 18.5945C27.3416 17.6759 26.9373 16.358 27.4215 15.2696C26.8594 15.3313 26.3234 15.5394 25.8669 15.8732C25.4105 16.207 25.0497 16.6547 24.8206 17.1717H23.0233C23.0335 16.724 23.0921 16.2788 23.1981 15.8438C23.3 15.4084 23.5113 15.0063 23.8121 14.6756C23.3878 14.8104 22.8137 14.9701 22.3843 15.1448C22.0607 15.2704 21.7552 15.4383 21.4757 15.6441C20.8569 16.24 20.4175 16.9976 20.2077 17.8307C19.7085 19.1936 18.0461 19.8276 16.773 20.5115C16.5281 20.6545 16.2666 20.7669 15.9942 20.846C15.5449 20.9558 15.0657 20.8859 14.6064 20.9758C14.636 21.1351 14.7019 21.2855 14.7988 21.4153C14.8958 21.5451 15.0212 21.651 15.1655 21.7246C15.5914 22.0711 16.1152 22.2754 16.6632 22.3087C16.3886 22.9605 16.0544 23.5856 15.6647 24.1758C15.2672 24.7119 14.7227 25.1212 14.0972 25.354C14.7408 25.6251 15.4536 25.6862 16.134 25.5287C16.0511 26.2214 15.8921 26.9028 15.6598 27.5606C15.4607 28.1727 15.043 28.6899 14.4866 29.0133H15.3253C15.4777 28.9986 15.6314 29.0191 15.7746 29.0733C15.9036 29.1541 16.0142 29.2613 16.0991 29.3878C16.763 30.2914 17.462 31.2798 17.442 32.3831C17.442 32.8424 17.3871 33.3167 17.3671 33.776C17.432 33.6645 17.5198 33.5681 17.6249 33.4932C17.7299 33.4183 17.8496 33.3667 17.9762 33.3416C18.1122 33.3414 18.245 33.3835 18.3559 33.4623C18.4669 33.541 18.5505 33.6524 18.5952 33.781C18.6809 34.0415 18.7049 34.3184 18.6651 34.5897C18.5885 35.8111 18.4787 37.0309 18.3356 38.249C18.2408 39.0528 18.101 39.9115 17.5418 40.4906C18.096 40.1611 18.7799 40.4906 19.3341 40.8151C19.8719 41.1789 20.3291 41.6496 20.677 42.1979C21.0214 42.6971 21.3459 43.1664 21.6754 43.6656C21.6885 43.3161 21.7862 42.975 21.9601 42.6715C22.134 42.368 22.3789 42.1113 22.6739 41.9233C22.7523 41.8729 22.841 41.8405 22.9335 41.8285C23.0574 41.8324 23.1759 41.8802 23.268 41.9633C23.4623 42.1069 23.6236 42.2906 23.7408 42.5019C23.8581 42.7133 23.9286 42.9473 23.9475 43.1883C23.9664 43.4292 23.9334 43.6714 23.8506 43.8984C23.7678 44.1255 23.6372 44.3321 23.4677 44.5043C23.2584 44.6928 23.031 44.86 22.7887 45.0036C22.392 45.2702 22.018 45.5691 21.6704 45.8972L20.1378 47.3499C19.456 48.0117 18.9543 48.8365 18.6801 49.7462C17.1824 49.5765 15.5749 49.0573 14.856 47.7044C14.4791 46.9004 14.3841 45.9929 14.5864 45.1284C14.7807 44.2707 15.0599 43.4345 15.4201 42.6322C16.6732 39.4971 18.7899 34.4749 15.4601 31.8739C15.0313 31.5184 14.5133 31.287 13.9624 31.205C12.7393 31.0552 10.6126 32.0087 10.0784 33.2019C9.49126 33.1211 8.89329 33.2125 8.35713 33.4651C7.82096 33.7177 7.36968 34.1205 7.05808 34.6247C6.7885 35.069 6.64373 35.5782 6.38413 36.0275C6.13851 36.4467 5.79616 36.801 5.38568 37.0609C5.85544 37.2158 6.366 37.1909 6.81846 36.991C6.33886 37.5757 6.022 38.2765 5.89988 39.0228C5.78826 39.763 5.4272 40.4429 4.87646 40.9498C5.52047 40.6004 6.18943 40.2859 6.82844 39.9514C6.95479 39.8921 7.06971 39.811 7.16791 39.7118C7.07059 39.9482 7.01648 40.2001 7.00816 40.4556C7.00816 40.7751 7.00816 41.0946 7.00816 41.4141C7.0054 42.2772 6.75409 43.1213 6.28428 43.8454C7.01315 43.5109 7.45746 42.802 7.91176 42.138C8.30792 41.4353 8.84095 40.819 9.47933 40.3258C9.74128 41.0135 9.78143 41.7659 9.59415 42.4775C10.2442 41.6618 10.7924 40.77 11.2266 39.8216C11.4634 39.3458 11.6411 38.8428 11.7558 38.3239C11.8831 37.4716 11.8831 36.6052 11.7558 35.7529C11.6959 35.1039 11.631 34.4549 11.5711 33.8059C11.7737 33.5623 12.0444 33.3846 12.3486 33.2957C12.6527 33.2068 12.9765 33.2106 13.2784 33.3067C13.572 33.3981 13.8424 33.5515 14.0715 33.7565C14.3006 33.9615 14.483 34.2133 14.6064 34.4949C14.845 35.062 14.9393 35.6795 14.881 36.2921C14.7412 38.3738 13.553 40.216 12.3848 41.9533C11.2166 43.6906 11.2216 46.0919 11.636 48.1237C11.74 48.7249 11.9247 49.3093 12.1851 49.861C12.8151 51.002 13.8258 51.8854 15.0407 52.3572C16.248 52.7995 17.5156 53.0553 18.7999 53.116C18.7082 53.858 18.8701 54.6093 19.2592 55.2477L20.023 56.7454C20.0706 56.9021 20.0818 57.0677 20.0559 57.2294C20.0299 57.3912 19.9675 57.5449 19.8732 57.6789C18.6351 58.248 17.1974 58.3279 15.8345 58.3978L12.7842 58.5526C12.5758 58.5434 12.3693 58.5955 12.1901 58.7023C12.0855 58.7895 11.9989 58.8963 11.9355 59.0168C11.0951 60.3765 10.3704 61.8043 9.76888 63.2852C9.42941 64.109 9.68401 65.1773 9.74392 66.0659C9.72908 66.2772 9.75923 66.4893 9.83238 66.6881C9.90552 66.8868 10.02 67.0679 10.1683 67.2191C10.4568 67.3849 10.7923 67.4499 11.1218 67.4039L16.823 67.2391C16.7381 66.7748 16.9278 66.2407 16.798 65.7714C16.6546 65.417 16.4075 65.1142 16.0891 64.9027C15.9544 64.7868 15.8109 64.6816 15.6598 64.5882C15.085 64.3198 14.4495 64.2079 13.8176 64.2637C13.8953 63.8812 13.9188 63.4896 13.8875 63.1005C14.3804 62.8997 14.821 62.5889 15.1755 62.1919C17.447 62.806 19.6685 62.761 22.0099 62.6462C22.8286 62.6336 23.6429 62.5247 24.4362 62.3217C25.2349 62.1141 25.9488 61.662 26.478 61.0287C27.4016 59.8356 27.2867 58.1582 27.0721 56.6655C28.214 56.6447 29.3532 56.5463 30.4818 56.3709C30.459 57.1719 30.2793 57.9607 29.9526 58.6924C29.703 59.4162 29.5382 60.2499 29.9127 60.9139C30.337 61.6777 31.2955 61.9423 32.1592 62.0971C34.5852 62.5268 37.0521 62.6808 39.5128 62.5564C39.4629 62.9707 39.5128 63.6097 39.8672 63.8494C40.0628 63.9556 40.284 64.0057 40.5062 63.9941C42.0039 64.0291 43.4567 63.9941 44.9294 63.9542C45.0615 63.9598 45.1921 63.925 45.3038 63.8544C45.3752 63.7731 45.4242 63.6747 45.4461 63.5688C45.4679 63.4629 45.4619 63.3532 45.4286 63.2503C45.3255 62.4414 45.0515 61.6637 44.6249 60.9688C44.1908 60.2706 43.513 59.7582 42.7228 59.5311C42.2977 59.4438 41.8635 59.4086 41.4298 59.4262C39.4129 59.4262 37.3977 59.4478 35.3842 59.4911C35.3492 58.7173 35.3243 57.8137 35.2943 57.0399C35.7436 56.4359 36.2478 55.7619 36.6472 55.1229C37.3112 54.0495 37.9252 52.8314 37.7605 51.5784C37.6327 50.8654 37.3609 50.1859 36.9617 49.5815C36.8174 49.2922 36.6091 49.0395 36.3527 48.8426C36.0469 48.6684 35.7055 48.5659 35.3542 48.5431C33.7417 48.3434 31.9795 48.2386 30.6116 49.1172C30.6116 48.8326 30.6765 48.5131 30.6765 48.2236C31.62 47.6644 32.5136 47.1502 33.4622 46.5911C34.5155 45.9621 35.6138 45.2931 36.2628 44.2497C37.0316 43.0017 37.0216 41.4441 36.9917 39.9814C39.9871 40.0313 43.257 40.1461 46.2773 40.191C46.2773 40.5605 46.3172 40.875 46.3172 41.2394C46.3084 41.3322 46.3257 41.4255 46.3672 41.509C46.4265 41.5857 46.5087 41.6416 46.6018 41.6687C47.6552 42.0994 48.7836 42.3166 49.9217 42.3077C50.2185 42.3423 50.5193 42.3045 50.7983 42.1975C51.0774 42.0906 51.3264 41.9177 51.5242 41.6937C51.6387 41.4691 51.6996 41.2211 51.7022 40.9691C51.7048 40.717 51.649 40.4678 51.5391 40.2409Z" fill="url(#paint0_linear_19_155)"/>
<path d="M66.1316 18.949H77.1545V19.5281H73.2955V38.5586C73.2955 42.7072 76.4256 44.5493 79.5208 44.5493C84.613 44.5493 87.813 42.1131 87.813 36.6915V22.0042C87.813 20.0373 87.194 19.5081 85.5964 19.5081H83.5596V18.949H91.9965V19.5281H90.359C88.7965 19.5281 88.3971 20.1871 88.3971 22.0242V37.1408C88.3971 42.817 84.3234 45.1284 79.4809 45.1284C73.4902 45.1284 69.5862 43.7106 69.5862 37.9246V19.5281H66.1316V18.949Z" fill="url(#paint1_linear_19_155)"/>
<path d="M119.324 27.2411H118.725C118.725 23.0576 115.196 18.949 110.738 18.949C104.248 18.949 103.389 26.9865 103.389 31.7541C103.389 36.5217 104.248 44.5593 110.738 44.5593C115.32 44.5593 118.725 40.0662 118.725 35.5033H119.309V44.1299H118.725C118.725 43.4011 118.361 42.3127 117.487 42.3127C116.414 42.3078 114.482 45.1284 110.738 45.1284C104.587 45.1284 99.2554 39.1976 99.2554 31.7391C99.2554 24.2807 104.602 18.3499 110.738 18.3499C114.447 18.3499 116.049 21.0058 117.392 21.0058C118.391 21.0058 118.74 20.3168 118.74 19.4432H119.324V27.2411Z" fill="#2D5155"/>
<path d="M131.001 28.8436C135.694 28.8436 138.714 32.7376 138.714 36.9211C138.714 41.1046 135.699 44.9986 131.001 44.9986C126.303 44.9986 123.288 41.1046 123.288 36.9211C123.288 32.7376 126.303 28.8436 131.001 28.8436ZM135.2 35.5033C135.2 32.3382 135.055 29.4277 130.981 29.4277C126.907 29.4277 126.758 32.3382 126.758 35.5033V38.3389C126.758 41.504 126.902 44.4145 130.981 44.4145C135.06 44.4145 135.2 41.504 135.2 38.3389V35.5033Z" fill="#2D5155"/>
<path d="M143.477 30.2265H140.606V29.6524H143.477C145.224 29.6524 145.878 29.6524 146.532 28.8536V32.5629H146.607C147.55 30.8206 149.373 28.8536 152.029 28.8536C155.922 28.8536 157.021 30.8206 157.021 32.9673V43.9802H159.896V44.5593H151.08V43.9802H153.956V32.0836C153.956 30.0867 152.957 29.4277 151.809 29.4277C148.754 29.4277 147.191 32.483 146.532 33.7211V43.9802H149.298V44.5593H140.606V43.9802H143.477V30.2265Z" fill="#2D5155"/>
<path d="M162.158 39.2874H162.657C162.947 41.1395 163.895 44.4145 167.714 44.4145C169.711 44.4145 171.244 43.1065 171.244 41.0347C171.244 38.1592 169.057 38.1192 167.13 37.9046C164.764 37.6499 162.472 37.3205 162.472 33.5363C162.472 30.9204 164.185 28.8436 167.02 28.8436C168.987 28.8436 170.335 30.1166 170.695 30.1166C170.914 30.1166 170.949 29.862 170.949 29.3528V29.0633H171.449L171.598 33.3915H171.144C170.889 31.3198 169.796 29.4277 166.921 29.4277C165.068 29.4277 163.576 30.4261 163.576 32.3382C163.576 34.2502 164.994 34.8842 167.395 35.029L168.633 35.1039C171.578 35.2836 172.781 36.8861 172.781 39.3972C172.781 42.777 170.525 44.9986 167.724 44.9986C164.924 44.9986 163.975 43.431 163.231 43.431C162.762 43.431 162.867 44.0151 162.797 44.7789H162.248L162.158 39.2874Z" fill="#2D5155"/>
<path d="M178.133 30.2265H175.222V29.6524H178.133C179.296 29.6524 180.459 29.5825 181.188 28.8536V41.8685C181.188 43.431 182.062 44.4145 183.445 44.4145C185.991 44.4145 188.247 41.544 188.247 38.8481V30.2265H185.372V29.6524H188.247C189.41 29.6524 190.574 29.5825 191.302 28.8536V43.9802H194.213V44.5593H188.227V41.2494H188.152C187.828 42.0881 186.3 44.9986 183.06 44.9986C179.421 44.9986 178.113 43.0716 178.113 40.9599L178.133 30.2265Z" fill="#2D5155"/>
<path d="M198.377 19.3134H195.466V18.7293H198.377C199.54 18.7293 200.703 18.6544 201.432 17.8207V43.9802H204.342V44.5593H195.466V43.9802H198.377V19.3134Z" fill="#2D5155"/>
<path d="M208.526 30.2265H205.361V29.6524C209.145 29.7273 210.528 28.1247 211.147 24.5603H211.581V29.6524H216.603V30.2365H211.581V42.4525C211.581 43.9502 212.2 44.4145 213.363 44.4145C215.186 44.4145 215.984 42.7421 216.204 42.1231L216.748 42.2329C216.479 43.0688 215.942 43.7928 215.22 44.2928C214.498 44.7928 213.632 45.0408 212.754 44.9986C210.203 44.9986 208.531 44.1599 208.531 41.7586L208.526 30.2265Z" fill="#2D5155"/>
<path d="M220.677 30.2265H217.767V29.6524H220.677C221.841 29.6524 223.004 29.5825 223.733 28.8536V43.9802H226.643V44.5593H217.767V43.9802H220.677V30.2265ZM222.205 20.4417C222.572 20.4417 222.932 20.5507 223.237 20.755C223.543 20.9593 223.781 21.2496 223.921 21.5892C224.062 21.9289 224.098 22.3025 224.026 22.6629C223.954 23.0233 223.777 23.3542 223.516 23.6137C223.256 23.8732 222.925 24.0497 222.564 24.1208C222.204 24.1919 221.83 24.1544 221.491 24.0131C221.152 23.8718 220.862 23.633 220.658 23.3269C220.455 23.0208 220.347 22.6613 220.348 22.2938C220.35 21.8025 220.547 21.3322 220.895 20.9853C221.243 20.6384 221.714 20.443 222.205 20.4417Z" fill="#2D5155"/>
<path d="M230.647 30.2265H227.771V29.6524H230.647C232.394 29.6524 233.048 29.6524 233.702 28.8536V32.5629H233.777C234.72 30.8206 236.538 28.8536 239.194 28.8536C243.088 28.8536 244.186 30.8206 244.186 32.9673V43.9802H247.061V44.5593H238.25V43.9802H241.126V32.0836C241.126 30.0867 240.127 29.4277 238.979 29.4277C235.924 29.4277 234.356 32.483 233.702 33.7211V43.9802H236.468V44.5593H227.771V43.9802H230.647V30.2265Z" fill="#2D5155"/>
<path d="M260.041 42.8869C262.078 42.8869 264.08 43.7256 264.08 47.0704C264.08 52.0177 260.086 54.7485 255.678 54.7485C252.328 54.7485 248.654 53.5504 248.654 50.0558C248.654 48.0189 250.726 46.4913 252.293 45.7974V45.7275C250.296 45.7275 249.348 44.3446 249.348 42.3427C249.348 39.7967 250.581 38.7782 252.912 38.7383V38.6684C251.275 37.6101 250.181 36.4868 250.181 34.5198C250.181 31.2799 252.982 28.8436 256.222 28.8436C257.005 28.8016 257.787 28.9183 258.524 29.1869C259.26 29.4554 259.934 29.8702 260.505 30.4062C261.159 29.6823 262.068 28.8436 263.306 28.8436C264.359 28.8436 265.163 29.4277 265.163 30.4811C265.163 31.3547 264.469 31.7541 263.705 31.7541C263.4 31.765 263.103 31.6554 262.878 31.449C262.653 31.2426 262.518 30.9559 262.502 30.6508C262.502 29.887 262.682 29.6524 262.902 29.4527C262.482 29.521 262.082 29.6756 261.725 29.9067C261.368 30.1379 261.064 30.4406 260.83 30.7956C261.721 31.8012 262.224 33.0917 262.248 34.435C262.248 37.4303 259.043 39.7817 256.207 39.7817C255.267 39.7911 254.34 39.5572 253.516 39.1027C251.554 39.1377 249.952 39.6868 249.952 41.3942C249.951 41.6 249.993 41.8037 250.075 41.9926C250.157 42.1815 250.276 42.3515 250.427 42.4921C250.577 42.6326 250.755 42.7406 250.949 42.8094C251.143 42.8782 251.349 42.9063 251.554 42.8919L260.041 42.8869ZM253.711 45.7275C251.529 46.1967 250.401 47.4748 250.401 49.911C250.401 52.9663 253.022 54.1644 255.858 54.1644C259.567 54.1644 263.206 51.8031 263.206 48.1737C263.206 46.2816 261.679 45.7375 259.787 45.7375L253.711 45.7275ZM256.207 39.1776C259.202 39.1776 259.202 36.8862 259.202 34.3002C259.202 31.3897 259.202 29.4277 256.207 29.4277C253.212 29.4277 253.212 32.3732 253.212 34.3002C253.237 36.6416 253.237 39.1776 256.222 39.1776H256.207Z" fill="#2D5155"/>
<path d="M65.0483 50.9344H91.9966" stroke="url(#paint2_linear_19_155)" stroke-width="0.37442" stroke-miterlimit="10"/>
</g>
<defs>
<linearGradient id="paint0_linear_19_155" x1="4.86149" y1="41.0347" x2="51.6989" y2="41.0347" gradientUnits="userSpaceOnUse">
<stop stop-color="#B46A11"/>
<stop offset="0.32" stop-color="#D68D15"/>
<stop offset="0.68" stop-color="#E7AC18"/>
<stop offset="1" stop-color="#F8C73D"/>
</linearGradient>
<linearGradient id="paint1_linear_19_155" x1="66.1316" y1="32.0437" x2="91.9965" y2="32.0437" gradientUnits="userSpaceOnUse">
<stop stop-color="#B46A11"/>
<stop offset="0.32" stop-color="#D68D15"/>
<stop offset="0.68" stop-color="#E7AC18"/>
<stop offset="1" stop-color="#F8C73D"/>
</linearGradient>
<linearGradient id="paint2_linear_19_155" x1="nan" y1="nan" x2="nan" y2="nan" gradientUnits="userSpaceOnUse">
<stop stop-color="#B46A11"/>
<stop offset="0.32" stop-color="#D68D15"/>
<stop offset="0.68" stop-color="#E7AC18"/>
<stop offset="1" stop-color="#F8C73D"/>
</linearGradient>
<clipPath id="clip0_19_155">
<rect width="268.184" height="83.6054" fill="white" transform="translate(0.907715 0.697266)"/>
</clipPath>
</defs>
</svg>
