<svg width="142" height="141" viewBox="0 0 142 141" fill="none" xmlns="http://www.w3.org/2000/svg">
<path d="M71.0074 8.86816C76.3746 8.86472 81.6898 9.91933 86.6491 11.9717C91.6084 14.024 96.1145 17.0339 99.9097 20.829C103.705 24.6242 106.715 29.1303 108.767 34.0896C110.819 39.0489 111.874 44.3641 111.871 49.7313V76.5399H99.4091V105.533H77.488V132.132H30.1291V56.1273C30.1291 55.0078 30.1539 53.7864 30.2048 52.4095C30.2737 50.7909 30.4114 49.1819 30.5264 47.9605C30.9651 43.5549 31.7588 39.1919 32.8995 34.9139C35.8532 27.3476 40.9885 20.8296 47.6536 16.1874C54.5246 11.3997 62.6004 8.86816 71.0074 8.86816ZM71.0074 8.04199C53.2895 8.04199 38.1533 19.0872 32.1126 34.6571C30.9529 38.9921 30.1471 43.414 29.7029 47.8793C29.5652 49.3616 29.4406 50.8597 29.3787 52.3744C29.3332 53.6095 29.3022 54.8611 29.3022 56.1273V132.961H78.3135V106.359H100.233V77.3661H112.694V49.7313C112.694 44.2565 111.616 38.8353 109.521 33.7772C107.426 28.7191 104.355 24.1232 100.484 20.2519C96.6128 16.3806 92.0169 13.3098 86.9588 11.2149C81.9007 9.11986 76.4794 8.04172 71.0046 8.04199H71.0074Z" fill="white"/>
<path d="M99.7092 53.686C99.5406 53.9799 99.354 54.2884 99.1543 54.581C97.7794 56.6601 95.9382 58.3898 93.7773 59.6323C91.3559 61.0529 88.5984 61.7996 85.791 61.7948C83.6403 61.8059 81.5108 61.3708 79.5369 60.517C78.9275 60.2708 78.3386 59.9765 77.7757 59.6372C75.3116 58.214 73.27 56.1613 71.8604 53.6894C73.2637 51.2058 75.3049 49.142 77.773 47.7114C78.3432 47.3829 78.9321 47.0881 79.5369 46.8287C79.9183 46.6658 80.3066 46.5171 80.7018 46.3826C79.9862 47.3175 79.5452 48.4332 79.4281 49.6047C79.4281 49.7135 79.4136 49.8202 79.4136 49.9289C79.4006 49.9849 79.3951 50.0423 79.3971 50.0997V50.2684C79.3971 50.4549 79.4136 50.6401 79.4281 50.8253V50.9176C79.5905 52.5193 80.3521 54.0005 81.5601 55.0646C82.7682 56.1287 84.3337 56.6971 85.943 56.6561C87.5524 56.6151 89.0869 55.9677 90.2392 54.8435C91.3915 53.7192 92.0766 52.2012 92.1573 50.5933C92.1694 50.4854 92.1742 50.3769 92.1718 50.2684C92.1739 50.155 92.169 50.0417 92.1573 49.9289C92.0969 48.637 91.6402 47.3949 90.8492 46.3716C91.8679 46.7157 92.848 47.1647 93.7739 47.7114C95.9351 48.96 97.776 50.6946 99.1509 52.7779C99.3505 53.0691 99.5371 53.3775 99.7092 53.686Z" fill="white"/>
</svg>
