<svg width="175" height="79" viewBox="0 0 175 79" fill="none" xmlns="http://www.w3.org/2000/svg">
<g clip-path="url(#clip0_19_62)">
<path d="M6.31952 65.7694C4.31885 64.5658 2.79143 62.8712 1.73501 60.6849C0.679333 58.4992 0.151123 55.9807 0.151123 53.1279C0.151123 50.2752 0.679333 47.7574 1.73501 45.571C2.79069 43.3854 4.3092 41.6908 6.29129 40.4865C8.27265 39.2831 10.6344 38.6806 13.3757 38.6806C15.1535 38.6806 16.7648 39.0238 18.2098 39.7087C19.6548 40.3945 20.784 41.3298 21.599 42.5147V27.1231H28.378V67.1306H21.599V63.6298C20.784 64.8519 19.654 65.8161 18.2098 66.5188C16.7648 67.2221 15.1899 67.5748 13.4871 67.5748C10.7087 67.5748 8.31941 66.9734 6.31952 65.7694ZM8.98657 59.3513C10.3565 60.907 12.1721 61.6848 14.4321 61.6848C16.692 61.6848 18.5716 60.907 19.9609 59.3513C21.3501 57.7957 22.0447 55.7215 22.0447 53.1279C22.0447 50.5344 21.3501 48.4602 19.9609 46.9046C18.5716 45.3489 16.7285 44.5711 14.4321 44.5711C12.1358 44.5711 10.3565 45.3489 8.98657 46.9046C7.61589 48.4602 6.93093 50.5352 6.93093 53.1279C6.93093 55.7207 7.61589 57.7957 8.98657 59.3513Z" fill="black"/>
<path d="M37.4913 65.7135C35.2685 64.4729 33.5272 62.7501 32.2679 60.5459C31.008 58.3424 30.3787 55.8701 30.3787 53.1279C30.3787 50.3858 31.008 47.9142 32.2679 45.71C33.5272 43.5065 35.2685 41.7837 37.4913 40.5423C39.7141 39.3017 42.2326 38.6806 45.0482 38.6806C47.8639 38.6806 50.3266 39.3017 52.5494 40.5423C54.7722 41.7837 56.5128 43.5065 57.7728 45.71C59.032 47.9142 59.662 50.3873 59.662 53.1279C59.662 55.8686 59.032 58.3424 57.7728 60.5459C56.5128 62.7501 54.7722 64.4729 52.5494 65.7135C50.3266 66.9552 47.8267 67.5754 45.0482 67.5754C42.2697 67.5754 39.7141 66.9559 37.4913 65.7135ZM39.4081 59.2956C40.8337 60.8884 42.714 61.6848 45.0482 61.6848C47.3825 61.6848 49.2063 60.8884 50.6327 59.2956C52.0583 57.7035 52.7723 55.6472 52.7723 53.1279C52.7723 50.6087 52.0583 48.5531 50.6327 46.9603C49.2063 45.3682 47.3445 44.5711 45.0482 44.5711C42.7519 44.5711 40.8337 45.3586 39.4081 46.9328C37.9817 48.5078 37.2685 50.5724 37.2685 53.1287C37.2685 55.6851 37.9809 57.7035 39.4081 59.2956Z" fill="black"/>
<path d="M68.5516 65.6577C66.4033 64.3801 64.7458 62.6395 63.5787 60.4345C62.4115 58.231 61.8283 55.795 61.8283 53.1279C61.8283 50.4609 62.4115 48.0256 63.5787 45.8214C64.7458 43.618 66.4033 41.8766 68.5516 40.598C70.6993 39.3202 73.2002 38.6813 76.0532 38.6813C78.3866 38.6813 80.5349 39.1255 82.4981 40.0148C84.4613 40.9041 86.0634 42.1544 87.3052 43.7658C88.5456 45.3771 89.258 47.2389 89.4444 49.3503H82.6098C82.3877 47.9803 81.674 46.8415 80.4699 45.9328C79.2659 45.0258 77.8495 44.5718 76.2194 44.5718C73.886 44.5718 72.08 45.369 70.8019 46.961C69.5245 48.5539 68.8854 50.6102 68.8854 53.1287C68.8854 55.6472 69.5329 57.7043 70.8305 59.2963C72.1267 60.8891 73.9412 61.6856 76.2759 61.6856C77.906 61.6856 79.2945 61.2688 80.4433 60.4352C81.5915 59.6017 82.3513 58.4821 82.7221 57.0735H89.5567C89.2976 59.1114 88.5469 60.927 87.3064 62.5191C86.0654 64.1119 84.473 65.3526 82.528 66.2415C80.5829 67.1312 78.4249 67.5754 76.0545 67.5754C73.2015 67.5754 70.6999 66.9358 68.5516 65.6577Z" fill="black"/>
<path d="M94.6664 64.9358C92.5551 63.1766 91.4245 60.7963 91.2771 57.7957H97.5005C97.6486 59.1292 98.213 60.1849 99.1955 60.9627C100.177 61.7405 101.426 62.1298 102.946 62.1298C104.243 62.1298 105.298 61.8431 106.113 61.2688C106.928 60.6953 107.335 59.9821 107.335 59.1292C107.335 58.2763 107.085 57.6761 106.585 57.2125C106.085 56.7497 105.454 56.4161 104.696 56.2125C103.936 56.0097 102.871 55.7779 101.5 55.5179C99.5001 55.1479 97.8798 54.7401 96.6387 54.2958C95.3977 53.8515 94.3235 53.0551 93.4163 51.9066C92.5084 50.7588 92.0551 49.1281 92.0551 47.0167C92.0551 45.4247 92.4895 43.9887 93.3611 42.7101C94.2313 41.4323 95.4256 40.4413 96.9453 39.7377C98.4636 39.0342 100.168 38.682 102.057 38.682C105.353 38.682 108.039 39.5067 110.114 41.1545C112.188 42.803 113.299 44.9983 113.448 47.7389H107.169C107.021 46.5168 106.455 45.5533 105.474 44.8497C104.492 44.1461 103.409 43.794 102.224 43.794C101.039 43.794 100.029 44.063 99.3066 44.6001C98.5844 45.1372 98.2233 45.8697 98.2233 46.7946C98.2233 47.906 98.6766 48.6564 99.5845 49.0449C100.492 49.4342 101.927 49.7588 103.892 50.0174C105.928 50.3145 107.604 50.6756 108.92 51.1005C110.235 51.527 111.365 52.3419 112.309 53.5455C113.254 54.7498 113.726 56.5179 113.726 58.8521C113.726 61.4828 112.744 63.5941 110.781 65.1869C108.817 66.7799 106.205 67.5761 102.946 67.5761C99.6872 67.5761 96.7777 66.696 94.6664 64.9358Z" fill="black"/>
<path d="M116.615 39.1255H123.449V67.1306H116.615V39.1255Z" fill="black"/>
<path d="M138.174 30.6794V39.1255H145.952V44.8489H138.174V57.0735C138.174 58.4821 138.525 59.546 139.23 60.2689C139.933 60.991 140.933 61.352 142.23 61.352H145.952V67.1312H141.452C138.34 67.1312 135.877 66.2701 134.061 64.5472C132.246 62.8244 131.339 60.4271 131.339 57.3514V44.8489H125.838V39.1255H131.339V30.6794H138.174Z" fill="black"/>
<path d="M158.066 67.0747L147.842 39.1255H154.787L161.233 58.3513L167.678 39.1255H174.679L166.123 62.5741L160.567 78.4657H154.065L158.066 67.0747Z" fill="black"/>
<path d="M104.279 30.0405C98.2597 30.0405 92.42 28.8607 86.92 26.5355L89.193 21.162C93.9689 23.1819 99.0442 24.2064 104.277 24.2064C109.51 24.2064 114.586 23.1819 119.362 21.162C123.977 19.2104 128.122 16.4155 131.683 12.8547C135.243 9.2947 138.038 5.14927 139.99 0.534302L145.363 2.80687C143.118 8.11722 139.902 12.886 135.808 16.9801C131.714 21.0743 126.946 24.2889 121.635 26.5355C116.136 28.8615 110.298 30.0405 104.279 30.0405Z" fill="#0063FF"/>
</g>
<defs>
<clipPath id="clip0_19_62">
<rect width="174.696" height="77.9314" fill="white" transform="translate(0.151855 0.534302)"/>
</clipPath>
</defs>
</svg>
