<svg width="182" height="55" viewBox="0 0 182 55" fill="none" xmlns="http://www.w3.org/2000/svg">
<g clip-path="url(#clip0_20_190)">
<path d="M73.5165 14.4287C75.1823 16.0568 75.9928 18.1372 75.9928 20.6472C75.9928 23.1572 75.1598 25.2376 73.5165 26.8883C71.8506 28.5391 69.757 29.3531 67.2131 29.3531H60.6621V11.9639H67.2131C69.7795 11.9865 71.8731 12.8005 73.5165 14.4287ZM70.77 24.4009C71.7155 23.4286 72.1882 22.1622 72.1882 20.6472C72.1882 19.1321 71.7155 17.8884 70.77 16.9161C69.8245 15.9663 68.6088 15.4689 67.123 15.4689H64.4216V25.8481H67.123C68.6088 25.8708 69.8245 25.3733 70.77 24.4009Z" fill="white"/>
<path d="M76.9619 10.7881H80.5638V14.1574H76.9619V10.7881ZM76.9619 15.9438H80.5638V29.3532H76.9619V15.9438Z" fill="white"/>
<path d="M96.0972 15.9213V29.3307H93.2607L92.968 28.1322C91.7524 29.195 90.3116 29.7151 88.6457 29.7151C86.6422 29.7151 84.9538 29.0367 83.6256 27.68C82.2974 26.3232 81.6445 24.6272 81.6445 22.5921C81.6445 20.5795 82.2974 18.8836 83.6256 17.5494C84.9538 16.2152 86.6197 15.5369 88.6457 15.5369C90.3341 15.5369 91.7974 16.0796 93.0356 17.1876L93.4408 15.8987H96.0972V15.9213ZM91.5048 25.283C92.2026 24.582 92.5403 23.7001 92.5403 22.6599C92.5403 21.5971 92.2026 20.7152 91.5048 20.0368C90.8069 19.3358 89.9514 18.9966 88.9159 18.9966C88.218 18.9966 87.6102 19.1549 87.0474 19.4715C86.4846 19.7881 86.0569 20.2403 85.7417 20.783C85.4265 21.3484 85.269 21.9589 85.269 22.6599C85.269 23.7227 85.6066 24.6046 86.3045 25.283C86.9799 25.984 87.8578 26.3232 88.8934 26.3232C89.9514 26.3232 90.8294 25.9614 91.5048 25.283Z" fill="white"/>
<path d="M110.932 15.9437V27.7929C110.932 29.1949 110.662 30.3933 110.099 31.4109C109.536 32.4285 108.749 33.2199 107.736 33.7626C106.722 34.3053 105.507 34.5767 104.089 34.5767C102.265 34.5767 100.757 34.1471 99.5411 33.2652C98.3255 32.3833 97.5826 31.1848 97.2674 29.6697H100.847C101.049 30.235 101.432 30.6873 102.04 31.0039C102.625 31.3205 103.278 31.4788 103.999 31.4788C104.944 31.4788 105.754 31.1848 106.385 30.6195C107.015 30.0541 107.33 29.2853 107.33 28.313V27.8155C106.227 28.6069 104.967 29.014 103.526 29.014C102.31 29.014 101.185 28.72 100.172 28.1321C99.1584 27.5441 98.348 26.7301 97.7627 25.7125C97.1774 24.6949 96.9072 23.5417 96.9072 22.2979C96.9072 20.4211 97.5376 18.8382 98.8207 17.5266C100.104 16.2151 101.68 15.5593 103.526 15.5593C105.259 15.5593 106.745 16.1246 107.983 17.2779L108.546 15.9437H110.932ZM106.43 24.808C107.083 24.1522 107.398 23.3155 107.398 22.3206C107.398 21.3256 107.083 20.5115 106.452 19.8558C105.822 19.2 104.989 18.8834 103.999 18.8834C103.03 18.8834 102.22 19.2 101.567 19.8558C100.914 20.5115 100.599 21.3256 100.599 22.3206C100.599 23.3381 100.914 24.1748 101.545 24.808C102.175 25.4637 102.985 25.7803 103.976 25.7803C104.967 25.8029 105.777 25.4637 106.43 24.808Z" fill="white"/>
<path d="M123.583 17.1647C124.461 18.1823 124.911 19.539 124.911 21.2576V29.3756H121.309V21.8229C121.309 19.8104 120.544 18.8154 118.991 18.8154C118.383 18.8154 117.842 18.9511 117.392 19.2451C116.942 19.5164 116.582 19.9235 116.357 20.4662C116.132 21.0089 115.996 21.6194 115.996 22.3204V29.3756H112.395V15.9662H114.871L115.591 17.6396C115.839 17.323 116.132 17.0516 116.447 16.8029C116.762 16.5541 117.122 16.3506 117.505 16.1923C117.887 16.0114 118.293 15.8758 118.698 15.7853C119.126 15.6949 119.553 15.6496 120.026 15.6496C121.512 15.627 122.705 16.1471 123.583 17.1647Z" fill="white"/>
<path d="M129.346 28.8329C128.243 28.2224 127.387 27.3631 126.757 26.2777C126.149 25.1922 125.834 23.9938 125.834 22.6596C125.834 20.6244 126.509 18.9285 127.883 17.5943C129.256 16.2602 130.967 15.5818 133.06 15.5818C135.131 15.5818 136.842 16.2602 138.216 17.5943C139.589 18.9285 140.264 20.6244 140.264 22.6596C140.264 24.6721 139.566 26.3681 138.193 27.7249C136.82 29.0816 135.109 29.76 133.06 29.76C131.71 29.7374 130.471 29.4434 129.346 28.8329ZM135.627 25.3053C136.28 24.6269 136.617 23.745 136.617 22.6596C136.617 21.5742 136.28 20.6923 135.627 20.0139C134.974 19.3355 134.118 18.9737 133.06 18.9737C132.002 18.9737 131.169 19.3129 130.494 20.0139C129.841 20.6923 129.503 21.5742 129.503 22.6596C129.503 23.1797 129.593 23.6772 129.774 24.152C129.954 24.6269 130.179 25.0113 130.494 25.3279C130.809 25.6445 131.192 25.8932 131.62 26.0741C132.047 26.255 132.543 26.3455 133.06 26.3455C134.096 26.3455 134.951 26.0063 135.627 25.3053Z" fill="white"/>
<path d="M143.348 29.1496C142.492 28.7425 141.84 28.1998 141.367 27.4536C140.894 26.73 140.669 25.8933 140.669 24.9436H144.181C144.203 25.3506 144.293 25.6672 144.496 25.9612C144.676 26.2325 144.946 26.436 145.284 26.5491C145.622 26.6622 145.982 26.73 146.432 26.73C146.77 26.73 147.085 26.6848 147.378 26.5717C147.648 26.4813 147.895 26.323 148.075 26.1195C148.255 25.9159 148.346 25.6672 148.346 25.3959C148.346 24.9888 148.12 24.6722 147.693 24.4687C147.265 24.2652 146.612 24.1069 145.757 23.9486C145.216 23.8582 144.766 23.7903 144.406 23.6999C144.046 23.6094 143.641 23.4738 143.145 23.2702C142.65 23.0667 142.267 22.818 141.975 22.5692C141.682 22.2979 141.434 21.9361 141.209 21.4838C140.984 21.009 140.894 20.4889 140.894 19.8783C140.894 18.612 141.389 17.5944 142.38 16.803C143.37 16.0115 144.676 15.6045 146.274 15.6045C147.873 15.6045 149.178 16.0115 150.169 16.8256C151.16 17.6397 151.632 18.7251 151.632 20.0592H148.188C148.188 18.9964 147.513 18.4763 146.184 18.4763C145.622 18.4763 145.194 18.5894 144.879 18.8155C144.564 19.0416 144.406 19.3582 144.406 19.7653C144.406 19.9235 144.451 20.0818 144.541 20.2175C144.631 20.3532 144.744 20.4663 144.856 20.5567C144.969 20.6472 145.171 20.715 145.441 20.7828C145.712 20.8507 145.937 20.9185 146.117 20.9411L146.927 21.0994C147.242 21.1673 147.468 21.2125 147.603 21.2351C147.738 21.2577 147.963 21.3029 148.278 21.3708C148.593 21.4386 148.818 21.5064 148.976 21.5517C149.133 21.6195 149.336 21.6873 149.629 21.7778C149.899 21.8682 150.101 21.9813 150.237 22.0944C150.372 22.2074 150.552 22.3205 150.754 22.4788C150.957 22.6371 151.115 22.7954 151.227 22.9763C151.34 23.1572 151.452 23.3607 151.565 23.5642C151.677 23.7903 151.767 24.0391 151.79 24.3104C151.835 24.5818 151.857 24.8984 151.857 25.2149C151.857 26.5943 151.34 27.6797 150.327 28.5164C149.314 29.3305 147.963 29.7375 146.274 29.7375C145.194 29.7375 144.203 29.5566 143.348 29.1496Z" fill="white"/>
<path d="M161.831 26.1424V29.3761H159.287C158.319 29.3761 157.463 29.1952 156.743 28.8108C156.023 28.4263 155.482 27.8836 155.1 27.16C154.717 26.4364 154.537 25.5771 154.537 24.5822V18.8611H152.105V18.0923L157.396 12.4617H158.071V15.9667H161.763V18.8837H158.161V24.1299C158.161 24.7857 158.341 25.2832 158.701 25.6223C159.062 25.9841 159.557 26.1651 160.232 26.1651H161.831V26.1424Z" fill="white"/>
<path d="M162.8 10.7881H166.402V14.1574H162.8V10.7881ZM162.8 15.9438H166.402V29.3532H162.8V15.9438Z" fill="white"/>
<path d="M170.947 28.8103C169.867 28.1997 169.011 27.3405 168.403 26.2324C167.796 25.147 167.48 23.9259 167.48 22.6144C167.48 20.6018 168.156 18.9285 169.507 17.5943C170.857 16.2602 172.546 15.5818 174.572 15.5818C176.305 15.5818 177.791 16.0793 179.029 17.0742C180.267 18.0692 181.055 19.4034 181.37 21.0541H177.791C177.498 20.3983 177.071 19.9008 176.485 19.5164C175.922 19.1546 175.27 18.9511 174.549 18.9511C173.581 18.9511 172.771 19.2903 172.118 19.9913C171.465 20.6923 171.15 21.5516 171.15 22.5918C171.15 23.632 171.488 24.5139 172.14 25.2148C172.793 25.9385 173.604 26.2777 174.572 26.2777C175.292 26.2777 175.945 26.0741 176.508 25.6897C177.071 25.3053 177.498 24.74 177.813 24.0164H181.415C181.078 25.7123 180.29 27.0917 179.052 28.1319C177.791 29.1721 176.305 29.6922 174.549 29.6922C173.221 29.7374 172.028 29.4435 170.947 28.8103Z" fill="white"/>
<path d="M65.5469 36.7932H67.1677C67.7305 36.7932 68.1583 36.9515 68.4959 37.2907C68.8336 37.6299 68.9912 38.0822 68.9912 38.6927V38.8962C68.9912 39.7329 68.676 40.2982 68.0682 40.5922C68.4059 40.7278 68.6535 40.9314 68.8336 41.2253C69.0137 41.5193 69.1038 41.8811 69.1038 42.3334V42.8987C69.1038 43.4866 68.9237 43.9615 68.586 44.3007C68.2483 44.6399 67.7981 44.8208 67.2578 44.8208H65.5469V36.7932ZM66.3123 40.3208H67.1002C67.4604 40.3208 67.7305 40.2078 67.9106 40.0042C68.1132 39.7781 68.2033 39.4841 68.2033 39.0771V38.7153C68.2033 38.3083 68.1132 37.9917 67.9106 37.7882C67.708 37.5847 67.4379 37.4716 67.1002 37.4716H66.3123V40.3208ZM66.3123 44.165H67.2128C67.573 44.165 67.8431 44.0519 68.0232 43.8484C68.2258 43.6223 68.3159 43.3283 68.3159 42.9213V42.2203C68.3159 41.8133 68.2258 41.4967 68.0232 41.2932C67.8206 41.067 67.5504 40.9766 67.2128 40.9766H66.3123V44.165Z" fill="white"/>
<path d="M81.71 36.7932H82.5204V44.8208H81.71V36.7932Z" fill="white"/>
<path d="M95.2617 38.5341C95.2617 37.9688 95.4418 37.5165 95.7795 37.1773C96.1172 36.8381 96.5449 36.6572 97.0627 36.6572C97.5804 36.6572 97.9857 36.8155 98.3233 37.1547C98.661 37.4939 98.8186 37.9235 98.8186 38.4889V43.0566C98.8186 43.622 98.6385 44.0742 98.3008 44.4134C97.9631 44.7526 97.5354 44.9335 97.0176 44.9335C96.4999 44.9335 96.0947 44.7752 95.757 44.436C95.4193 44.0968 95.2617 43.6672 95.2617 43.1019V38.5341ZM96.0271 43.0566C96.0271 43.4185 96.1172 43.6898 96.2973 43.8933C96.4774 44.0968 96.725 44.1873 97.0176 44.1873C97.3103 44.1873 97.5579 44.0968 97.738 43.8933C97.9181 43.6898 98.0082 43.4185 98.0082 43.0566V38.5341C98.0082 38.1723 97.9181 37.9009 97.738 37.6974C97.5579 37.4939 97.3103 37.3808 97.0176 37.3808C96.725 37.3808 96.4774 37.4939 96.2973 37.6974C96.1172 37.9009 96.0271 38.1723 96.0271 38.5341V43.0566Z" fill="white"/>
<path d="M114.016 42.0163H114.759V43.1469C114.759 43.6896 114.601 44.1193 114.286 44.4359C113.971 44.7751 113.565 44.9334 113.07 44.9334C112.575 44.9334 112.17 44.7751 111.855 44.4585C111.539 44.1419 111.382 43.7123 111.382 43.1696V38.4887C111.382 37.946 111.539 37.5164 111.877 37.1772C112.215 36.838 112.62 36.6797 113.115 36.6797C113.611 36.6797 113.993 36.838 114.308 37.1546C114.624 37.4711 114.781 37.9008 114.781 38.4435V39.4837H114.038V38.4887C114.038 38.1495 113.948 37.8782 113.791 37.6973C113.611 37.4937 113.385 37.4033 113.115 37.4033C112.845 37.4033 112.597 37.4937 112.44 37.6973C112.26 37.9008 112.17 38.1495 112.17 38.4887V43.1243C112.17 43.4635 112.26 43.7349 112.44 43.9384C112.62 44.1193 112.845 44.2324 113.115 44.2324C113.385 44.2324 113.633 44.1419 113.791 43.9384C113.971 43.7575 114.038 43.4861 114.038 43.1243V42.0163H114.016Z" fill="white"/>
<path d="M130.178 40.954H128.242V44.8208H127.477V36.7932H128.242V40.2304H130.178V36.7932H130.966V44.8208H130.178V40.954Z" fill="white"/>
<path d="M143.799 36.7932H144.609V44.8208H143.799V36.7932Z" fill="white"/>
<path d="M157.463 36.7932H159.084C159.669 36.7932 160.119 36.9741 160.457 37.3133C160.795 37.6525 160.952 38.1274 160.952 38.7605V39.665C160.952 40.2756 160.772 40.7731 160.434 41.1123C160.097 41.4515 159.624 41.6324 159.061 41.6324H158.228V44.8208H157.463V36.7932ZM158.228 40.9314H159.061C159.421 40.9314 159.692 40.8183 159.872 40.6148C160.074 40.3887 160.164 40.0947 160.164 39.6877V38.7831C160.164 38.3761 160.074 38.0595 159.872 37.856C159.669 37.6299 159.399 37.5394 159.061 37.5394H158.228V40.9314Z" fill="white"/>
<path d="M173.896 43.0566C173.896 43.4185 173.986 43.7124 174.166 43.9159C174.346 44.1194 174.594 44.2325 174.887 44.2325C175.179 44.2325 175.427 44.1421 175.607 43.9385C175.787 43.735 175.877 43.4637 175.877 43.1245C175.877 42.7401 175.765 42.3783 175.562 42.0391C175.36 41.6999 175.022 41.3155 174.527 40.8632C173.649 40.0265 173.198 39.2351 173.198 38.4436C173.198 37.9235 173.356 37.4939 173.694 37.1547C174.031 36.8381 174.437 36.6572 174.932 36.6572C175.427 36.6572 175.81 36.8155 176.125 37.1321C176.44 37.4487 176.598 37.8783 176.598 38.421V38.8281H175.877V38.4889C175.877 38.1497 175.787 37.8783 175.607 37.6748C175.427 37.4713 175.202 37.3808 174.932 37.3808C174.662 37.3808 174.414 37.4713 174.256 37.6522C174.076 37.8331 174.009 38.0818 174.009 38.421C174.009 38.7376 174.099 39.0542 174.279 39.3481C174.459 39.6421 174.752 39.9813 175.179 40.3657C175.675 40.8406 176.035 41.2928 176.283 41.7225C176.53 42.1521 176.665 42.627 176.665 43.1245C176.665 43.6672 176.485 44.0968 176.147 44.436C175.81 44.7752 175.382 44.9335 174.864 44.9335C174.346 44.9335 173.941 44.7752 173.626 44.436C173.311 44.0968 173.153 43.6672 173.153 43.1019V42.5818H173.896V43.0566Z" fill="white"/>
<path d="M15.413 21.9359C15.8408 21.5515 16.3585 21.2575 16.9213 21.1218L17.2365 14.8581C17.1465 14.8129 17.0339 14.7676 16.9438 14.7224L11.9912 19.8555L15.413 21.9359Z" fill="white"/>
<path d="M18.2055 13.7954C19.0136 13.7954 19.6687 13.1373 19.6687 12.3255C19.6687 11.5138 19.0136 10.8557 18.2055 10.8557C17.3973 10.8557 16.7422 11.5138 16.7422 12.3255C16.7422 13.1373 17.3973 13.7954 18.2055 13.7954Z" fill="white"/>
<path d="M17.6207 26.2772C18.7148 26.2772 19.6018 25.3863 19.6018 24.2873C19.6018 23.1883 18.7148 22.2974 17.6207 22.2974C16.5266 22.2974 15.6396 23.1883 15.6396 24.2873C15.6396 25.3863 16.5266 26.2772 17.6207 26.2772Z" fill="white"/>
<path d="M14.7837 25.825L6.49933 27.8375C6.47682 28.041 6.43179 28.2445 6.36426 28.448L11.2043 31.2973C11.587 31.0033 12.0373 30.8223 12.5551 30.8223C12.6451 30.8223 12.7577 30.8223 12.8477 30.8449L15.324 26.5711C15.0989 26.3449 14.9188 26.0963 14.7837 25.825Z" fill="white"/>
<path d="M6.16211 25.9157C6.20713 26.0062 6.25216 26.0966 6.29718 26.1871L14.4015 24.2198C14.4015 23.9258 14.4465 23.6318 14.5366 23.3831L10.7996 21.1218L6.16211 25.9157Z" fill="white"/>
<path d="M12.5549 33.966C13.0771 33.966 13.5004 33.5408 13.5004 33.0163C13.5004 32.4918 13.0771 32.0667 12.5549 32.0667C12.0327 32.0667 11.6094 32.4918 11.6094 33.0163C11.6094 33.5408 12.0327 33.966 12.5549 33.966Z" fill="white"/>
<path d="M7.1293 19.3806C7.93744 19.3806 8.59257 18.7225 8.59257 17.9108C8.59257 17.099 7.93744 16.4409 7.1293 16.4409C6.32115 16.4409 5.66602 17.099 5.66602 17.9108C5.66602 18.7225 6.32115 19.3806 7.1293 19.3806Z" fill="white"/>
<path d="M9.33674 20.2172L8.90901 19.9685C8.43626 20.3755 7.80593 20.6469 7.13057 20.6469C6.86042 20.6469 6.59028 20.6017 6.32013 20.5338C5.44217 21.574 4.87937 23.1117 4.92439 24.6494C4.9469 24.672 4.96942 24.672 5.01444 24.6946L9.33674 20.2172Z" fill="white"/>
<path d="M3.30234 29.3981C4.39645 29.3981 5.2834 28.5072 5.2834 27.4081C5.2834 26.3091 4.39645 25.4182 3.30234 25.4182C2.20824 25.4182 1.32129 26.3091 1.32129 27.4081C1.32129 28.5072 2.20824 29.3981 3.30234 29.3981Z" fill="white"/>
<path d="M24.4857 38.7375C24.3507 39.4611 23.9905 40.0716 23.4502 40.5465L26.2867 46.2223V38.6018L24.4857 38.7375Z" fill="white"/>
<path d="M15.1887 7.41803C15.7109 7.41803 16.1342 6.99282 16.1342 6.46829C16.1342 5.94376 15.7109 5.51855 15.1887 5.51855C14.6665 5.51855 14.2432 5.94376 14.2432 6.46829C14.2432 6.99282 14.6665 7.41803 15.1887 7.41803Z" fill="white"/>
<path d="M18.9021 14.9483L18.5869 21.2121C19.3748 21.4608 20.0277 22.0261 20.4329 22.7271L25.2054 21.5739L19.3298 14.79C19.1947 14.8579 19.0597 14.9031 18.9021 14.9483Z" fill="white"/>
<path d="M26.2874 20.24V7.12451L20.727 11.3531C20.8395 11.6471 20.9071 11.9863 20.9071 12.3255C20.9071 12.8229 20.772 13.2752 20.5469 13.6596L26.2874 20.24Z" fill="white"/>
<path d="M20.3887 25.9836L26.2868 32.3152V23.0439L20.8614 24.3555C20.8389 24.9434 20.6588 25.5087 20.3887 25.9836Z" fill="white"/>
<path d="M8.72793 46.1313C9.53607 46.1313 10.1912 45.4731 10.1912 44.6614C10.1912 43.8496 9.53607 43.1917 8.72793 43.1917C7.91978 43.1917 7.26465 43.8496 7.26465 44.6614C7.26465 45.4731 7.91978 46.1313 8.72793 46.1313Z" fill="white"/>
<path d="M9.85355 17.911C9.85355 18.1145 9.83104 18.3181 9.78602 18.5216L10.5514 18.9738L15.8192 13.5241C15.6391 13.1623 15.5266 12.7553 15.5266 12.303C15.5266 11.5568 15.8417 10.8784 16.337 10.381L15.4365 8.66238C15.369 8.66238 15.3015 8.66238 15.2339 8.66238C15.0088 8.66238 14.7837 8.61715 14.5811 8.54932C14.536 8.61715 14.491 8.66238 14.446 8.73022C14.446 8.73022 12.6 11.4664 10.1012 13.0267C9.24573 13.5694 9.15568 14.3156 8.97559 15.8533C9.49336 16.3734 9.85355 17.097 9.85355 17.911Z" fill="white"/>
<path d="M16.6977 47.873L19.4667 40.7952C19.2415 40.6369 19.0389 40.456 18.8813 40.2524L11.4074 44.1871C11.4299 44.3454 11.4524 44.481 11.4524 44.6393C11.4524 45.476 11.0697 46.2222 10.4844 46.7197C10.732 47.1946 11.0022 47.6016 11.2498 47.873C11.9927 48.687 13.4334 49.1619 14.6716 49.2297C15.0093 48.4383 15.7747 47.873 16.6977 47.873Z" fill="white"/>
<path d="M6.92639 42.6492C7.39915 42.2196 8.02948 41.9482 8.72735 41.9482C9.47025 41.9482 10.1231 42.2422 10.6184 42.7171L18.1374 38.7598L6.11596 37.8779C5.93587 38.285 5.6207 38.6242 5.26051 38.8729C5.21548 40.6367 5.73326 41.9256 6.92639 42.6492Z" fill="white"/>
<path d="M4.13593 37.9454C4.65812 37.9454 5.08143 37.5202 5.08143 36.9956C5.08143 36.4711 4.65812 36.0459 4.13593 36.0459C3.61375 36.0459 3.19043 36.4711 3.19043 36.9956C3.19043 37.5202 3.61375 37.9454 4.13593 37.9454Z" fill="white"/>
<path d="M21.9655 41.3149C21.7628 41.3602 21.5377 41.3828 21.3126 41.3828C21.2226 41.3828 21.1325 41.3828 21.0425 41.3602L18.251 48.5058C18.6562 48.9129 18.9038 49.4556 18.9038 50.0661C18.9038 50.3827 18.8363 50.654 18.7237 50.9254C19.5792 51.7847 20.7723 52.2596 21.988 52.2369C23.8565 52.1917 25.3648 50.9932 25.9726 49.3651L21.9655 41.3149Z" fill="white"/>
<path d="M16.6975 51.0154C17.2196 51.0154 17.643 50.5902 17.643 50.0657C17.643 49.5412 17.2196 49.116 16.6975 49.116C16.1753 49.116 15.752 49.5412 15.752 50.0657C15.752 50.5902 16.1753 51.0154 16.6975 51.0154Z" fill="white"/>
<path d="M13.8391 34.7802C13.4789 35.0516 13.0287 35.2099 12.5559 35.2099C11.9931 35.2099 11.4979 35.0063 11.0927 34.6445L7.69336 36.2953L17.6887 37.0415L13.8391 34.7802Z" fill="white"/>
<path d="M20.9301 34.9155L21.5604 29.692L19.1742 27.1367C18.7014 27.3855 18.1836 27.5438 17.6208 27.5438C17.3057 27.5438 17.013 27.4985 16.7429 27.4081L14.2891 31.6819C14.5817 32.0437 14.7393 32.5186 14.7393 33.0161C14.7393 33.1291 14.7168 33.2422 14.7168 33.3553L19.0166 35.8653C19.5118 35.3678 20.1872 35.006 20.9301 34.9155Z" fill="white"/>
<path d="M10.3712 33.1515C10.3712 33.1062 10.3712 33.061 10.3712 33.0158C10.3712 32.9253 10.3712 32.8349 10.3937 32.7444L5.44105 29.8274C4.87825 30.3249 4.13535 30.6414 3.32492 30.6414C3.12231 30.6414 2.94222 30.6188 2.73961 30.5962C2.73961 30.6414 2.7171 30.6641 2.7171 30.7093C2.58202 31.7495 2.44695 32.9027 3.95526 34.8022C4.02279 34.8022 4.09033 34.8022 4.15786 34.8022C4.76569 34.8022 5.30598 35.0509 5.71119 35.458L10.3712 33.1515Z" fill="white"/>
<path d="M24.3722 37.0865L26.2858 36.9508V34.7574L23.044 31.2976L22.5713 35.1644C23.4042 35.5036 24.0571 36.2046 24.3722 37.0865Z" fill="white"/>
<path d="M21.3111 40.1388C22.4052 40.1388 23.2922 39.2479 23.2922 38.1489C23.2922 37.0499 22.4052 36.1589 21.3111 36.1589C20.217 36.1589 19.3301 37.0499 19.3301 38.1489C19.3301 39.2479 20.217 40.1388 21.3111 40.1388Z" fill="white"/>
<path d="M17.3723 6.46869C17.3723 7.0114 17.1697 7.48627 16.8545 7.87069L17.7775 9.61188C17.9126 9.58926 18.0476 9.56665 18.2052 9.56665C18.7455 9.56665 19.2633 9.72494 19.691 10.0189L25.9944 5.22499C25.4316 3.86822 24.0583 3.23506 22.3474 3.6647C20.5014 4.13957 18.813 4.8858 17.3272 5.92599C17.3498 6.1295 17.3723 6.3104 17.3723 6.46869Z" fill="white"/>
<path d="M51.9501 32.2248L47.2451 32.2474L43.6206 35.9107L45.264 37.5614C45.4216 37.5162 45.5792 37.4936 45.7368 37.4936C46.6823 37.4936 47.4477 38.2624 47.4477 39.2121C47.4477 40.1619 46.6823 40.9307 45.7368 40.9307C44.7913 40.9307 44.0259 40.1619 44.0259 39.2121C44.0259 39.0538 44.0484 38.8955 44.0934 38.7373L42.45 37.0865L39.8161 39.7322C39.8611 39.9131 39.9062 40.094 39.9062 40.2749C39.9062 41.2247 39.1408 41.9935 38.1953 41.9935C37.2498 41.9935 36.4844 41.2247 36.4844 40.2749C36.4844 39.3252 37.2498 38.5564 38.1953 38.5564C38.3303 38.5564 38.4654 38.579 38.6005 38.6016L46.5472 30.574L51.9051 30.5288C51.6799 29.2173 50.802 28.1092 50.1266 27.4082C49.6539 26.9108 49.4287 26.2098 49.5863 25.554C50.1041 23.1796 48.9335 20.6018 47.3126 19.6294C47.3126 19.6294 46.232 19.0415 45.8944 17.142H42.4725V19.1319C42.9903 19.4259 43.328 19.9912 43.328 20.6244C43.328 21.5741 42.5626 22.343 41.6171 22.343C40.6716 22.343 39.9062 21.5741 39.9062 20.6244C39.9062 19.9686 40.2664 19.4033 40.8066 19.1093V16.6671L38.9382 14.7903C38.8031 14.8355 38.6455 14.8581 38.4879 14.8581C37.5424 14.8581 36.777 14.0893 36.777 13.1395C36.777 12.1898 37.5424 11.421 38.4879 11.421C39.4334 11.421 40.1988 12.1898 40.1988 13.1395C40.1988 13.3204 40.1763 13.4787 40.1313 13.637L41.9773 15.4913H45.6692C45.5342 14.225 45.3766 13.5466 44.5887 13.0717C42.0673 11.5114 40.2438 8.77527 40.2438 8.77527C38.1277 6.10696 35.4263 4.54667 32.2971 3.7326C30.0009 3.14467 28.3575 4.47883 28.3575 6.87579V12.122L30.9014 9.56672C30.8564 9.40843 30.8338 9.25014 30.8338 9.09185C30.8338 8.14211 31.5992 7.37327 32.5448 7.37327C33.4903 7.37327 34.2557 8.14211 34.2557 9.09185C34.2557 10.0416 33.4903 10.8104 32.5448 10.8104C32.3872 10.8104 32.2296 10.7878 32.072 10.7426L28.335 14.4511V29.2851H30.226L33.1301 26.368V21.3932C32.5898 21.0993 32.2296 20.5339 32.2296 19.8782C32.2296 18.9284 32.995 18.1596 33.9405 18.1596C34.886 18.1596 35.6514 18.9284 35.6514 19.8782C35.6514 20.5339 35.2912 21.0993 34.7734 21.3932V25.8706H43.4406C43.7332 25.3731 44.296 25.0339 44.9038 25.0339C45.8493 25.0339 46.6147 25.8027 46.6147 26.7525C46.6147 27.7022 45.8493 28.471 44.9038 28.471C44.2285 28.471 43.6432 28.0866 43.373 27.5213H34.3007L30.9014 30.9358H28.335V37.3127L32.1846 37.2448L37.2723 32.3152C37.2047 32.1117 37.1597 31.9082 37.1597 31.6821C37.1597 30.7323 37.9251 29.9635 38.8706 29.9635C39.8161 29.9635 40.5815 30.7323 40.5815 31.6821C40.5815 32.6318 39.8161 33.4006 38.8706 33.4006C38.7581 33.4006 38.668 33.4006 38.5554 33.378L33.3327 38.4433V45.4985C33.8504 45.7925 34.2106 46.3578 34.2106 47.0136C34.2106 47.9633 33.4452 48.7321 32.4997 48.7321C31.5542 48.7321 30.7888 47.9633 30.7888 47.0136C30.7888 46.3578 31.149 45.7925 31.6668 45.4985V38.9408L28.3125 39.0086V47.6693C28.3125 50.1341 30.1585 52.1467 32.6123 52.2371C34.3007 52.2823 35.9666 51.3326 36.7095 49.7271C37.0021 49.0713 37.79 48.7774 38.4429 49.0487C39.7486 49.5914 42.2474 49.0713 43.328 47.8955C43.9808 47.1945 44.7913 45.4985 44.8588 44.6166C44.9263 43.893 45.4666 43.3051 46.1645 43.1694C46.4121 43.1242 46.6147 43.0789 46.7498 43.0337C48.7534 42.4458 49.4963 40.795 49.2937 38.3755C49.2937 38.0589 49.2712 37.7423 49.2486 37.4483C49.1811 36.8378 49.4062 36.2046 49.834 35.7524C51.3197 34.2147 51.815 33.1067 51.9501 32.2248Z" fill="white"/>
</g>
<defs>
<clipPath id="clip0_20_190">
<rect width="181" height="54" fill="white" transform="translate(0.5 0.5)"/>
</clipPath>
</defs>
</svg>
