<svg width="189" height="43" viewBox="0 0 189 43" fill="none" xmlns="http://www.w3.org/2000/svg">
<g clip-path="url(#clip0_20_345)">
<mask id="mask0_20_345" style="mask-type:luminance" maskUnits="userSpaceOnUse" x="1" y="0" width="188" height="43">
<path d="M188.25 0.226562H1V42.8438H188.25V0.226562Z" fill="white"/>
</mask>
<g mask="url(#mask0_20_345)">
<path d="M65.0121 32.2204C64.9772 32.0796 64.9423 31.9389 64.9074 31.8333C64.8725 31.7277 64.8375 31.5517 64.8026 31.3757C64.7677 31.1997 64.7677 30.9534 64.7328 30.6718C64.7328 30.3902 64.7328 30.0383 64.7328 29.6159V26.2723C64.7328 25.2868 64.5582 24.5828 64.2089 24.1605C63.8597 23.7733 63.301 23.5622 62.5676 23.5622H61.4152V32.2204H58.0977V10.9619H63.0915C64.8026 10.9619 66.0598 11.3843 66.8281 12.1586C67.5963 12.9681 67.9805 14.2 67.9805 15.819V17.4732C67.9805 19.6554 67.2471 21.0984 65.8153 21.7671C66.6535 22.1191 67.2471 22.6822 67.5614 23.4566C67.8757 24.2309 68.0154 25.1812 68.0154 26.3075V29.5807C68.0154 30.1086 68.0503 30.5662 68.0852 30.9534C68.1202 31.3405 68.2249 31.7629 68.3995 32.15H65.0121V32.2204ZM61.3803 14.024V20.5353H62.6724C63.301 20.5353 63.7899 20.3593 64.1391 20.0425C64.4883 19.7258 64.6629 19.1274 64.6629 18.2827V16.171C64.6629 15.3966 64.5232 14.8335 64.2439 14.5167C63.9645 14.1648 63.5454 13.9888 62.9518 13.9888H61.3803V14.024Z" fill="white"/>
<path d="M71.4377 16.0647C71.4377 14.3401 71.8568 13.0378 72.7298 12.0875C73.6028 11.1724 74.8251 10.7148 76.4664 10.7148C78.1077 10.7148 79.33 11.1724 80.203 12.0875C81.076 13.0026 81.4951 14.3401 81.4951 16.0647V27.1163C81.4951 28.8409 81.076 30.1431 80.203 31.0934C79.33 32.0085 78.1077 32.4661 76.4664 32.4661C74.8251 32.4661 73.6028 32.0085 72.7298 31.0934C71.8568 30.1783 71.4377 28.8409 71.4377 27.1163V16.0647ZM74.7552 27.3275C74.7552 28.1018 74.8949 28.6297 75.2092 28.9465C75.5235 29.2632 75.9426 29.404 76.4664 29.404C76.9902 29.404 77.4093 29.2632 77.7236 28.9465C78.0379 28.6297 78.1776 28.1018 78.1776 27.3275V15.8535C78.1776 15.0792 78.0379 14.5512 77.7236 14.2345C77.4093 13.9177 76.9902 13.7769 76.4664 13.7769C75.9426 13.7769 75.5235 13.9177 75.2092 14.2345C74.8949 14.5512 74.7552 15.0792 74.7552 15.8535V27.3275Z" fill="white"/>
<path d="M84.7078 16.0647C84.7078 14.3401 85.1268 13.0378 85.93 12.0875C86.7332 11.1724 87.9555 10.7148 89.5968 10.7148C91.2381 10.7148 92.4604 11.1724 93.2636 12.0875C94.0668 13.0026 94.4858 14.3401 94.4858 16.0647V16.7334H91.3429V15.8535C91.3429 15.0792 91.2032 14.5512 90.8889 14.2345C90.6095 13.9177 90.1905 13.7769 89.6666 13.7769C89.1428 13.7769 88.7238 13.9177 88.4444 14.2345C88.165 14.5512 87.9904 15.0792 87.9904 15.8535C87.9904 16.5926 88.165 17.2261 88.4793 17.7893C88.7936 18.3524 89.2127 18.8804 89.7016 19.3731C90.1905 19.8659 90.7143 20.3586 91.2381 20.8514C91.7619 21.3441 92.3207 21.872 92.7747 22.4704C93.2636 23.0687 93.6477 23.7374 93.962 24.4766C94.2763 25.2157 94.4509 26.0956 94.4509 27.1163C94.4509 28.8409 94.0318 30.1431 93.1937 31.0934C92.3556 32.0085 91.1334 32.4661 89.492 32.4661C87.8507 32.4661 86.6285 32.0085 85.7904 31.0934C84.9522 30.1783 84.5332 28.8409 84.5332 27.1163V25.814H87.6761V27.3275C87.6761 28.1018 87.8158 28.6297 88.1301 28.9465C88.4444 29.2632 88.8635 29.404 89.3873 29.404C89.9111 29.404 90.3302 29.2632 90.6445 28.9465C90.9588 28.6297 91.0984 28.1018 91.0984 27.3275C91.0984 26.5883 90.9238 25.9548 90.6095 25.3917C90.2952 24.8285 89.8762 24.3006 89.4222 23.8078C88.9333 23.3151 88.4095 22.8223 87.8857 22.3296C87.3618 21.8368 86.8031 21.3089 86.3491 20.7106C85.8602 20.1122 85.4761 19.4435 85.1268 18.7044C84.8824 17.9653 84.7078 17.0854 84.7078 16.0647Z" fill="white"/>
<path d="M104.927 26.0611L107.197 10.9619H111.807V32.2204H108.664V16.9805L106.359 32.2204H103.216L100.737 17.1916V32.2204H97.8384V10.9619H102.448L104.927 26.0611Z" fill="white"/>
<path d="M126.439 32.2194H123.087L122.528 28.383H118.477L117.918 32.2546H114.845L118.233 10.9961H123.087L126.439 32.2194ZM118.861 25.4969H122.039L120.433 14.7621L118.861 25.4969Z" fill="white"/>
<path d="M136.392 32.2204C136.357 32.0796 136.322 31.9389 136.287 31.8333C136.252 31.7277 136.217 31.5517 136.182 31.3757C136.147 31.1997 136.147 30.9534 136.112 30.6718C136.112 30.3902 136.112 30.0383 136.112 29.6159V26.2723C136.112 25.2868 135.938 24.5828 135.589 24.1605C135.239 23.7733 134.681 23.5622 133.947 23.5622H132.795V32.2204H129.477V10.9619H134.471C136.182 10.9619 137.439 11.3843 138.208 12.1586C138.976 12.9681 139.36 14.2 139.36 15.819V17.4732C139.36 19.6554 138.627 21.0984 137.195 21.7671C138.033 22.1191 138.627 22.6822 138.941 23.4566C139.255 24.2309 139.395 25.1812 139.395 26.3075V29.5807C139.395 30.1086 139.43 30.5662 139.465 30.9534C139.5 31.3405 139.605 31.7629 139.779 32.15H136.392V32.2204ZM132.795 14.024V20.5353H134.087C134.716 20.5353 135.204 20.3593 135.554 20.0425C135.903 19.7258 136.077 19.1274 136.077 18.2827V16.171C136.077 15.3966 135.938 14.8335 135.658 14.5167C135.379 14.1648 134.96 13.9888 134.366 13.9888H132.795V14.024Z" fill="white"/>
<path d="M143.097 10.9619H146.414V32.2204H143.097V10.9619Z" fill="white"/>
<path d="M161.046 32.2204H157.694L157.135 28.3488H153.084L152.526 32.2204H149.487L152.875 10.9619H157.729L161.046 32.2204ZM153.503 25.4979H156.681L155.075 14.7631L153.503 25.4979Z" fill="white"/>
<path d="M167.053 16.8397V32.2204H164.085V10.9619H168.24L171.628 23.6677V10.9619H174.596V32.2204H171.209L167.053 16.8397Z" fill="white"/>
<path d="M178.193 16.0647C178.193 14.3401 178.612 13.0378 179.485 12.0875C180.358 11.1724 181.58 10.7148 183.222 10.7148C184.863 10.7148 186.085 11.1724 186.958 12.0875C187.831 13.0026 188.25 14.3401 188.25 16.0647V27.1163C188.25 28.8409 187.831 30.1431 186.958 31.0934C186.085 32.0085 184.863 32.4661 183.222 32.4661C181.58 32.4661 180.358 32.0085 179.485 31.0934C178.612 30.1783 178.193 28.8409 178.193 27.1163V16.0647ZM181.51 27.3275C181.51 28.1018 181.65 28.6297 181.964 28.9465C182.279 29.2632 182.698 29.404 183.222 29.404C183.745 29.404 184.165 29.2632 184.479 28.9465C184.793 28.6297 184.933 28.1018 184.933 27.3275V15.8535C184.933 15.0792 184.793 14.5512 184.479 14.2345C184.165 13.9177 183.745 13.7769 183.222 13.7769C182.698 13.7769 182.279 13.9177 181.964 14.2345C181.65 14.5512 181.51 15.0792 181.51 15.8535V27.3275Z" fill="white"/>
<path d="M16.7156 5.36521C18.6014 3.71099 20.8014 2.40873 23.1412 1.52882C25.5159 0.648917 28.0302 0.226562 30.5446 0.226562C35.5733 0.226562 40.602 2.19755 44.3735 5.57639C48.1799 8.95522 50.6943 13.7771 51.288 18.8454C51.6023 21.3795 51.4626 23.984 50.8689 26.4477C50.2752 28.9467 49.2625 31.3048 47.8307 33.4518C44.9672 37.6753 40.602 40.843 35.678 42.1452C33.2335 42.7788 30.6493 42.99 28.135 42.7436C25.6206 42.4972 23.1412 41.7581 20.8713 40.6318C16.3664 38.3441 12.7346 34.3669 10.8139 29.6506C9.87102 27.2924 9.3472 24.7583 9.27736 22.2594C9.20751 19.7253 9.59165 17.1911 10.3949 14.7978C8.8583 19.6197 9.10275 24.9343 11.0583 29.545C13.0139 34.1557 16.6109 38.0273 21.0808 40.2094C23.3158 41.3005 25.7254 41.9693 28.1699 42.2156C30.6493 42.462 33.1288 42.2508 35.5383 41.6173C40.3226 40.3502 44.583 37.253 47.3418 33.135C48.7387 31.0584 49.7514 28.7707 50.3102 26.3421C50.9038 23.9136 51.0435 21.3795 50.7292 18.9157C50.5895 17.6839 50.3102 16.452 49.9609 15.2553C49.5768 14.0587 49.1228 12.8972 48.5641 11.8061C47.4117 9.58875 45.8751 7.58257 44.0592 5.92835C40.4274 2.54951 35.5383 0.578525 30.5446 0.508132C28.0651 0.43774 25.5508 0.860094 23.211 1.66961C20.8713 2.51432 18.6363 3.78138 16.7156 5.36521Z" fill="white"/>
<path d="M40.7767 34.9644C40.7417 35.07 39.7989 34.1197 39.7989 33.9438C39.7989 33.9086 39.5195 33.5566 39.2052 33.2046C39.0655 33.0638 38.8909 32.8879 38.856 32.8175C38.9607 32.9583 39.0306 33.1342 38.9607 33.1342C38.9258 33.1342 38.9607 33.1694 39.0306 33.2398C39.1703 33.3454 40.0084 34.3661 40.2878 34.7533C40.3576 34.894 40.4275 35.1052 40.4275 35.246C40.4275 35.422 40.4275 35.4924 40.2878 35.3164C40.2528 35.2812 40.1132 35.246 40.0084 35.2812C39.9036 35.3164 39.8687 35.2812 39.8338 35.2108C39.7989 35.1756 39.7989 35.1756 39.7989 35.246C39.7989 35.422 39.6243 35.5276 39.6243 35.3516C39.6243 35.246 39.2052 34.7885 38.4718 33.9086C38.1925 33.627 38.0179 33.3454 38.0179 33.3454C37.9829 33.275 37.948 33.2398 37.8782 33.2398C37.7385 33.2398 37.9131 33.5214 38.2972 33.9438C38.4718 34.1901 38.6465 34.4013 38.6814 34.5069C38.6814 34.6125 38.7512 34.7533 38.8211 34.6829C38.856 34.6829 38.8909 34.7533 38.856 34.9292C38.8211 35.07 38.856 35.07 38.9607 35.0348C39.0655 34.9996 39.0655 34.9996 39.0655 35.07C38.9957 35.1756 39.4496 35.774 39.5195 35.6684C39.5544 35.6332 39.5544 35.6684 39.5195 35.7388C39.5195 35.8092 39.3449 35.9851 39.1703 36.0555C39.0306 36.1611 38.8909 36.3019 38.8909 36.3371C38.8909 36.3723 38.8211 36.4075 38.7512 36.4075C38.6814 36.4075 38.6115 36.4779 38.6115 36.5131C38.6115 36.6539 37.8083 37.2874 37.7036 37.217C37.7036 37.1818 37.5988 37.1818 37.4591 37.1466C37.3893 37.1466 37.0051 36.7594 36.621 36.2667C36.2369 35.8092 35.3289 34.7533 34.5956 33.9086C33.8622 33.099 33.0939 32.2191 32.8495 31.9024C32.605 31.6208 32.1161 31.0225 31.7669 30.6001C31.1034 29.861 30.4399 28.9459 29.043 27.0805C27.6811 25.2855 27.4716 24.9335 27.262 24.5816C26.9128 24.0536 26.843 24.0184 26.4937 24.1944C26.2493 24.4408 26.2493 24.5112 26.0747 25.4967C26.0747 25.6726 26.0048 25.9542 26.0048 26.095C25.935 26.3766 25.5509 28.7699 25.5509 28.9107C25.5509 28.9459 25.5509 28.9459 25.5159 28.9459C25.4112 28.8403 25.4461 27.9604 25.5858 26.9749C25.6556 26.5174 25.7255 26.095 25.6906 26.0598C25.6556 26.0246 25.6556 25.9542 25.7255 25.9542C25.7604 25.9542 25.7953 25.7782 25.7953 25.4967C25.8302 25.1799 25.7953 25.0039 25.7255 25.0039C25.6906 25.0039 25.6556 25.1095 25.6556 25.1799C25.6556 25.2855 25.5858 25.3559 25.5509 25.3559C25.5159 25.3559 25.5159 25.4263 25.5509 25.5319C25.5858 25.6374 25.6207 25.8134 25.5858 25.8486C25.5159 25.9894 25.4112 26.8341 25.3064 27.3973C25.3064 27.714 25.2366 27.9252 25.1667 27.9604C25.0969 27.9956 25.0969 28.066 25.1667 28.1012C25.3064 28.1716 25.1667 28.5587 25.027 28.4883C24.9223 28.4883 24.8524 28.4883 24.7477 28.5587C24.7477 28.6291 24.7127 28.5939 24.7477 28.4883C24.7826 28.3124 24.7477 28.242 24.6778 28.242C24.608 28.2772 24.5731 28.3827 24.608 28.5235C24.608 28.6291 24.5731 28.6995 24.5381 28.6995C24.4334 28.6995 24.4334 28.5939 24.4683 28.242C24.5032 27.89 24.5032 27.7844 24.4334 27.8196C24.3635 27.8196 24.4334 27.714 24.5032 27.538C24.6429 27.2917 24.6778 27.1509 24.608 26.9749C24.5381 26.6229 24.5731 25.9894 24.7477 25.7078C24.8874 25.3559 24.8874 25.0391 24.6778 25.0391C24.608 25.0391 24.5381 25.0743 24.5381 25.1095C24.5381 25.1799 24.4683 25.2151 24.3635 25.2151C24.2937 25.2151 24.2588 25.2503 24.2937 25.3207C24.2937 25.3911 24.2937 25.4967 24.2238 25.6022C24.154 25.6726 24.154 25.7078 24.2238 25.6726C24.3635 25.5671 24.5381 25.743 24.3635 25.9542C24.2238 26.095 24.0842 26.5174 24.2238 26.447C24.2937 26.3766 24.3635 26.4118 24.3635 26.447C24.3635 26.5174 24.2937 26.5525 24.2588 26.5525C24.2238 26.5525 24.1889 26.6581 24.1191 26.7285C24.1191 26.7989 24.0492 26.9045 24.0143 27.0101C24.0143 27.1157 24.0143 27.1157 24.0842 27.0805C24.1889 27.0101 24.1889 27.0453 24.0842 27.2213C24.0492 27.3269 23.9445 27.3973 23.8048 27.3973C23.7 27.3973 23.7 27.3973 23.8048 27.538C23.9445 27.6084 23.9445 27.714 23.8746 28.1012C23.8048 28.3827 23.7349 28.5939 23.7 28.6291C23.6302 28.6995 23.5953 28.6995 23.6302 28.5939C23.6651 28.5235 23.6651 28.4179 23.6302 28.3476C23.5603 28.3476 23.5254 28.3827 23.5254 28.5235C23.5254 28.6643 23.5603 28.7699 23.6302 28.7699C23.7 28.7699 23.6651 28.8403 23.5603 28.9107C23.4556 29.0163 23.4207 29.0515 23.4905 29.0515C23.7349 29.0163 23.8048 29.0867 23.7699 29.2275C23.7 29.4738 23.5953 29.509 23.4905 29.2275C23.4556 29.1219 23.4556 29.1571 23.4207 29.2979C23.4207 29.4034 23.4905 29.4738 23.5603 29.4738C23.7 29.4738 23.7 29.5442 23.6302 29.7202C23.6302 29.8258 23.5603 30.0722 23.5603 30.213C23.5603 30.3889 23.5254 30.5649 23.5254 30.6001C23.5254 30.6353 23.3508 30.8465 23.281 30.8465C23.1413 30.8817 23.1064 30.8465 23.1413 30.6001C23.1762 30.4945 23.1762 30.3185 23.246 30.2833C23.3857 30.1778 23.4207 30.0018 23.3159 29.685C23.246 29.3682 23.0714 29.333 22.8619 29.5794C22.6873 29.7554 22.6873 29.9314 22.8968 29.861C23.0714 29.8258 23.0714 29.861 23.0365 30.1074C23.0016 30.2833 22.9667 30.5649 22.9667 30.7761C22.9667 31.0577 22.9318 31.0929 22.6524 31.0929C22.4778 31.0929 22.2333 31.1281 22.0587 31.1633C21.8841 31.1984 21.6047 31.1632 21.3254 31.0577C20.8714 30.8465 20.8714 30.8465 20.9063 30.4593C21.0809 28.7347 21.1857 28.2772 21.2206 27.8196C21.2555 27.5732 21.3254 27.0805 21.3603 26.7285C21.6047 25.0391 21.7444 23.7017 21.6746 23.5257C21.6397 23.4201 21.6047 23.2793 21.5349 23.2793C21.3603 23.2793 20.6269 22.505 20.6269 22.2938C20.6269 22.1178 20.7317 22.0122 21.3254 21.8715C21.7793 21.6955 22.0238 21.5547 22.0587 21.4139C22.1286 21.3435 22.3381 20.2524 22.4778 19.0558C22.7222 17.8239 23.0365 15.7825 23.3159 14.5506L23.7699 12.2981L23.4556 12.0517C23.3508 11.9461 23.1762 11.8053 23.1762 11.7701C23.1762 11.6645 22.6873 11.1718 22.4428 11.0662C22.373 11.031 21.8492 10.6087 21.3254 10.1159C20.4174 9.23601 20.4174 9.23601 20.4872 8.88405C20.8015 8.10973 23.4905 6.63149 25.7953 5.99796C27.716 5.47002 30.6843 5.18845 31.9764 5.39962C32.8495 5.54041 33.932 5.99796 34.7003 6.63149C35.5384 7.30022 38.0179 9.90474 38.4369 10.5383C38.9258 11.2774 39.1354 11.9109 39.1703 12.7204C39.275 15.0082 37.6686 17.2959 34.2114 19.7245C33.513 20.2172 32.0114 21.2379 31.5574 21.4491C30.6145 21.9418 30.6494 21.8715 31.278 22.7514C31.5923 23.1737 32.1161 23.9128 32.4653 24.3352C32.7796 24.7927 33.4431 25.6022 33.8971 26.1654C34.3511 26.7285 35.4337 27.9956 36.167 28.9811C37.7734 30.9521 38.1226 31.3392 39.1004 32.5711C40.2528 34.0493 40.8465 34.8589 40.7767 34.9644ZM22.7921 28.3476C22.7571 28.3476 22.7222 28.4179 22.7222 28.4531C22.7222 28.4883 22.7571 28.5235 22.7571 28.5235C22.7921 28.5235 22.827 28.4883 22.8619 28.4531C22.8619 28.4531 22.8619 28.3476 22.7921 28.3476ZM23.281 28.5587C23.246 28.5587 23.1762 28.5939 23.1762 28.6643C23.1762 28.6995 23.1762 28.8403 23.1413 29.0515C23.1064 29.3682 23.2111 29.4738 23.3159 29.1923C23.3857 28.9459 23.3508 28.5587 23.281 28.5587ZM23.4556 28.1012C23.4556 28.0308 23.4207 27.9956 23.3508 27.9956C23.3159 27.9956 23.246 28.0308 23.246 28.1012C23.2111 28.1716 23.246 28.1716 23.3159 28.1716C23.3857 28.1716 23.4556 28.1716 23.4556 28.1012ZM24.9572 29.2979C24.8524 30.6353 24.7826 30.9873 24.6778 30.9873C24.5731 30.9873 24.5381 30.8817 24.5731 30.5297C24.608 30.2833 24.6429 29.9666 24.6778 29.7906C24.6778 29.509 24.6778 29.4386 24.5381 29.4034C24.3635 29.3682 24.3635 29.3682 24.4683 29.5794C24.5381 29.7554 24.5381 29.7554 24.4334 29.6146C24.3286 29.5794 24.2588 29.4386 24.2588 29.333C24.2588 29.2275 24.5381 29.0867 24.608 29.2627C24.6429 29.2627 24.7127 29.2979 24.7826 29.2979C24.8175 29.2979 24.8175 29.2627 24.7826 29.2275C24.7127 29.1571 24.6778 29.0867 24.7477 28.9107C24.9223 28.5939 24.9921 28.7347 24.9572 29.2979ZM24.5032 29.0515C24.4683 29.0515 24.4334 29.0163 24.4334 28.9459C24.4334 28.9107 24.5032 28.8755 24.5381 28.8755C24.5731 28.8755 24.608 28.9107 24.5731 28.9459C24.5381 29.0163 24.5032 29.0515 24.5032 29.0515ZM24.9223 27.0101C24.8524 27.0101 24.8175 27.0453 24.8175 27.0805C24.8175 27.1509 24.8524 27.1861 24.8524 27.1861C24.8874 27.1861 24.9223 27.1509 24.9572 27.0805C24.9921 27.0453 24.9572 27.0101 24.9223 27.0101ZM25.062 26.095C24.9921 26.2006 24.9223 26.4118 24.9223 26.4822C24.9223 26.7637 25.062 26.5525 25.1667 26.1654C25.1667 25.9542 25.1667 25.9542 25.062 26.095ZM25.1667 25.2503C25.0969 25.0743 25.0969 25.1095 25.0969 25.3207C25.0969 25.5671 25.0969 25.6022 25.1667 25.4967C25.2715 25.3911 25.3064 25.3207 25.1667 25.2503ZM25.3064 30.8465C25.3064 30.9169 25.2715 30.9521 25.2017 30.9521C25.1667 30.9521 25.1318 30.9169 25.1318 30.8817C25.1318 30.8465 25.1667 30.7761 25.2017 30.7409C25.2715 30.7057 25.3064 30.7761 25.3064 30.8465ZM25.4112 29.9666C25.4112 30.0722 25.3413 30.213 25.3064 30.213C25.2715 30.213 25.2017 30.1074 25.2017 29.9666C25.2017 29.861 25.2715 29.685 25.3064 29.685C25.3413 29.7202 25.4112 29.861 25.4112 29.9666ZM25.935 24.5816C25.9001 24.476 25.8652 24.5112 25.8652 24.6168C25.8652 24.7223 25.9001 24.7927 25.9001 24.7223C25.935 24.7575 25.935 24.6519 25.935 24.5816ZM35.748 10.0807C35.748 9.3416 35.6083 9.23601 34.5257 9.06003C33.5479 8.91924 32.151 8.98964 30.6145 9.23601C29.2526 9.48238 29.043 9.55278 29.043 9.90474C29.043 10.1863 28.589 12.6852 28.17 14.5154C27.7858 16.4512 27.3319 18.6686 27.3319 18.7038C27.3319 18.8094 27.5065 18.7038 28.8335 17.8591C33.7574 14.7266 35.748 12.5093 35.748 10.0807ZM36.2369 31.3392C36.167 31.2336 35.9924 31.0225 35.8527 30.9169L35.5734 30.6353L35.8178 30.9169C35.9226 31.0225 35.9924 31.2336 35.9924 31.304C35.9924 31.4096 36.0623 31.48 36.1321 31.48C36.3067 31.5504 36.3416 31.5152 36.2369 31.3392ZM37.529 32.7823C37.4591 32.6767 37.1448 32.3247 36.8655 32.0432C36.4464 31.5856 36.4115 31.5504 36.5861 31.8672C36.6559 32.0432 36.8655 32.2895 36.9702 32.3951C37.0401 32.4655 37.1448 32.5711 37.1448 32.6415C37.1448 32.7823 37.529 33.1342 37.5988 33.0638C37.6337 33.0638 37.5988 32.8879 37.529 32.7823ZM37.7036 31.4096C37.5988 31.304 37.4242 31.1633 37.4242 31.1633C37.3544 31.1633 37.4591 31.2688 37.5639 31.4096C37.6686 31.5504 37.8433 31.6912 37.8782 31.6912C37.9131 31.656 37.8433 31.5504 37.7036 31.4096ZM38.3322 32.2191C38.2623 32.0784 38.1575 31.9728 38.0877 31.9376C38.0179 31.9376 38.0877 32.0432 38.2274 32.2191C38.5417 32.5007 38.5766 32.5007 38.3322 32.2191ZM39.1703 35.1404C39.2401 35.1404 39.275 35.1756 39.275 35.246C39.275 35.3164 39.2401 35.3164 39.2401 35.3164C39.2052 35.3164 39.1703 35.3164 39.1354 35.246C39.1004 35.1756 39.1004 35.1404 39.1703 35.1404ZM39.4846 34.8589C39.4846 34.9292 39.5893 35.0348 39.6592 35.0348C39.6941 35.0348 39.729 34.9644 39.6941 34.894C39.6592 34.7533 39.4846 34.7181 39.4846 34.8589Z" fill="white"/>
<path d="M11.1631 21.5195C11.5123 21.4491 14.6902 18.3518 14.341 17.9647C13.9568 17.5775 11.3028 21.3083 11.1631 21.5195Z" fill="white"/>
<path d="M13.5029 15.2204C12.8743 15.0444 10.7791 21.3797 10.8489 22.33C11.4775 21.6261 14.1664 15.4316 13.5029 15.2204Z" fill="white"/>
<path d="M10.0456 25.2516C10.4298 23.703 11.1631 19.585 10.5694 19.4443C9.90595 19.3387 9.94087 23.7382 10.0456 25.2516Z" fill="white"/>
<path d="M12.2456 31.4104C12.4551 29.8265 12.8741 25.8494 12.2456 25.603C11.5821 25.3214 11.7217 30.0025 12.2456 31.4104Z" fill="white"/>
<path d="M10.1154 28.2773C10.9185 29.1572 4.9819 25.0393 5.22635 24.5817C5.4708 24.1242 9.34709 27.3974 10.1154 28.2773Z" fill="white"/>
<path d="M12.595 33.6279C13.049 33.8391 9.76635 33.6279 9.87111 33.3112C9.97588 32.9944 12.141 33.4168 12.595 33.6279Z" fill="white"/>
<path d="M13.2933 34.6136C13.7822 34.5432 10.8837 36.127 10.8139 35.7751C10.7789 35.4583 12.8393 34.684 13.2933 34.6136Z" fill="white"/>
<path d="M13.1885 34.4368C13.7822 34.6479 9.24238 34.7887 9.48683 34.3312C9.69636 33.8384 12.5949 34.1904 13.1885 34.4368Z" fill="white"/>
<path d="M10.3249 29.0164C9.31218 28.3476 2.36279 25.6023 2.11834 26.3766C1.83897 27.2565 8.75344 28.3476 10.3249 29.0164Z" fill="white"/>
<path d="M10.2552 28.6997C8.89328 27.8198 3.23599 23.737 2.81693 24.3002C2.39787 24.8633 9.69648 28.5589 10.2552 28.6997Z" fill="white"/>
<path d="M9.83607 27.3975C9.03287 26.0248 6.09946 20.851 5.6804 21.0974C5.26135 21.3438 8.78842 26.5528 9.83607 27.3975Z" fill="white"/>
<path d="M12.49 33.2404C11.163 32.818 6.27398 31.0582 6.09937 31.5862C5.95969 32.0789 11.3027 33.3812 12.49 33.2404Z" fill="white"/>
<path d="M1.03584 19.5487C1.52474 19.0208 6.02962 23.5259 6.93758 24.5818C5.19151 23.913 0.54694 20.0063 1.03584 19.5487Z" fill="white"/>
<path d="M11.8615 32.1495C11.2679 31.4104 5.61052 29.545 4.84224 29.9322C4.07397 30.3193 9.90587 31.9736 11.8615 32.1495Z" fill="white"/>
<path d="M10.1155 26.0613C10.8837 25.3574 15.7029 21.2746 15.3537 20.7819C15.0045 20.2891 10.8837 24.7591 10.1155 26.0613Z" fill="white"/>
<path d="M12.4204 31.6921C12.6997 31.5161 14.4109 27.363 13.922 27.1518C13.4331 26.9406 12.4553 31.4105 12.4204 31.6921Z" fill="white"/>
<path d="M13.887 34.0856C14.0965 33.98 15.5981 30.9179 15.2489 30.7068C14.9346 30.4956 13.9568 33.8744 13.887 34.0856Z" fill="white"/>
<path d="M9.48682 17.6132C9.48682 16.3461 8.89315 9.72923 8.12488 9.41246C7.3566 9.0957 8.99791 16.3109 9.48682 17.6132Z" fill="white"/>
<path d="M9.3122 18.5637C9.1376 17.367 7.77566 13.5306 7.42644 13.7418C6.93754 14.0234 8.64869 17.719 9.3122 18.5637Z" fill="white"/>
<path d="M9.69629 18.5633C10.6392 17.9297 13.0488 15.3252 12.5249 14.8677C12.036 14.4101 9.94074 17.9649 9.69629 18.5633Z" fill="white"/>
<path d="M10.0107 25.8143C10.7441 25.0399 12.2807 21.8019 11.7569 21.6611C11.2679 21.5203 10.1155 25.2511 10.0107 25.8143Z" fill="white"/>
<path d="M13.0488 32.9238C13.5027 32.431 14.1663 30.1784 13.7821 30.0377C13.3631 29.8969 13.0488 32.5366 13.0488 32.9238Z" fill="white"/>
<path d="M13.2234 33.2762C13.8869 32.4667 15.3885 29.2286 14.9694 29.1934C14.5504 29.123 13.3281 32.713 13.2234 33.2762Z" fill="white"/>
<path d="M11.5473 31.727C10.9537 30.8471 8.02023 28.7706 7.8107 29.2281C7.56625 29.7209 11.0235 31.5511 11.5473 31.727Z" fill="white"/>
<path d="M12.2458 34.754C11.1981 34.5428 7.67099 34.9652 7.81068 35.4579C7.95036 35.9859 11.7219 35.0004 12.2458 34.754Z" fill="white"/>
<path d="M15.3188 8.14621C16.2616 8.42778 10.8837 16.0654 10.0806 16.8749C10.5345 15.5374 14.2711 7.82944 15.3188 8.14621Z" fill="white"/>
<path d="M7.84549 26.0598C7.46135 25.2151 4.31841 19.1613 3.72474 19.4077C3.13108 19.6541 6.2391 24.7927 7.84549 26.0598Z" fill="white"/>
<path d="M10.2203 15.5018C10.2901 15.4314 10.325 15.3258 10.4298 15.185C11.2679 13.5308 13.2933 7.47705 12.6298 7.19548C11.8964 6.87871 10.1853 14.2347 10.2203 15.5018Z" fill="white"/>
<path d="M9.03299 20.8515C8.64886 19.866 5.82021 16.9095 5.50592 17.3671C5.29639 17.7191 8.19488 20.394 9.03299 20.8515Z" fill="white"/>
<path d="M9.03298 20.8516C8.89329 19.6901 6.23925 14.5163 5.82019 14.5866C5.40114 14.6218 7.98533 19.9365 9.03298 20.8516Z" fill="white"/>
</g>
</g>
<defs>
<clipPath id="clip0_20_345">
<rect width="188" height="43" fill="white" transform="translate(0.5)"/>
</clipPath>
</defs>
</svg>
