<svg width="175" height="27" viewBox="0 0 175 27" fill="none" xmlns="http://www.w3.org/2000/svg">
<g clip-path="url(#clip0_20_257)">
<path d="M6.90367 25.5267L0.230469 7.1413H4.33312L8.96351 20.4706L13.5769 7.1413H17.6966L11.0234 25.5267H6.90367Z" fill="black"/>
<path d="M28.4361 26.0375C26.7236 26.0769 25.0314 25.6596 23.5334 24.8289C22.1454 24.0385 21.0048 22.8772 20.2394 21.4754C19.4276 19.9585 19.0202 18.2584 19.0563 16.5385C19.0106 14.7254 19.4079 12.9286 20.2138 11.3038C20.9467 9.89028 22.0615 8.71071 23.4313 7.89907C24.8781 7.06204 26.5267 6.63808 28.1978 6.67338C29.9156 6.61792 31.6101 7.08381 33.058 8.00974C34.415 8.92844 35.4531 10.2461 36.0285 11.7804C36.7053 13.6123 36.9556 15.5743 36.7607 17.5173H32.692V15.9767C32.8109 14.4327 32.4417 12.8904 31.6366 11.5676C31.2437 11.0907 30.7413 10.7161 30.172 10.476C29.6027 10.2358 28.9836 10.1373 28.3681 10.1887C27.6653 10.1353 26.9597 10.2484 26.3089 10.5191C25.6581 10.7898 25.0805 11.2103 24.623 11.7464C23.7178 13.0851 23.2864 14.688 23.3971 16.3002C23.3005 17.8391 23.733 19.3649 24.623 20.6242C25.0569 21.1421 25.6065 21.5506 26.2276 21.8166C26.8485 22.0829 27.5235 22.1991 28.1978 22.1562C29.1147 22.1822 30.0205 21.9492 30.8109 21.4839C31.56 21.0182 32.1526 20.3394 32.5132 19.5346L36.5648 20.7603C35.9115 22.3592 34.7707 23.7113 33.3048 24.6247C31.8511 25.5531 30.161 26.0434 28.4361 26.0375ZM22.1035 17.4748V14.3765H34.7518V17.4748H22.1035Z" fill="black"/>
<path d="M38.5332 10.3591V7.14165H51.352V10.3591H38.5332ZM51.352 25.527C50.1768 25.7508 48.9814 25.8507 47.7854 25.8248C46.7126 25.8183 45.6512 25.6015 44.6618 25.1865C43.7651 24.8066 43.0261 24.1305 42.5678 23.2714C42.1735 22.5162 41.9579 21.6803 41.938 20.8286C41.938 19.9774 41.938 19.0666 41.938 18.0196V2.03461H46.0235V17.7813C46.0235 18.5247 46.0235 19.1716 46.0235 19.7219C46.0207 20.1984 46.1409 20.6676 46.3726 21.0839C46.578 21.422 46.8647 21.7035 47.2067 21.9027C47.5485 22.102 47.9347 22.2124 48.3302 22.2245C49.3535 22.2971 50.3818 22.2514 51.3945 22.0882L51.352 25.527Z" fill="black"/>
<path d="M55.3193 25.5269V7.14144H58.9624V11.6186L58.5197 11.0398C58.7371 10.4303 59.0441 9.85651 59.4305 9.33747C59.8063 8.83943 60.2709 8.4152 60.801 8.08623C61.2661 7.7745 61.7734 7.53086 62.3074 7.36275C62.8598 7.18663 63.4313 7.07803 64.0099 7.0393C64.5783 6.9946 65.15 7.02034 65.7122 7.11591V10.9462C65.1 10.7787 64.4622 10.7267 63.8311 10.793C63.1554 10.8415 62.5 11.0454 61.916 11.3888C61.3727 11.6736 60.899 12.0746 60.5286 12.5634C60.1661 13.0516 59.8976 13.6029 59.7368 14.1892C59.5619 14.8297 59.476 15.4914 59.4815 16.1554V25.5183L55.3193 25.5269Z" fill="black"/>
<path d="M69.2449 4.34984V0.587646H73.3475V4.34984H69.2449ZM69.2449 25.5271V7.14168H73.3475V25.5271H69.2449Z" fill="black"/>
<path d="M78.4182 25.527V7.14167H82.0782V12.8445H82.5719V25.527H78.4182ZM91.1858 25.527V16.6748C91.1804 16.0319 91.1406 15.3898 91.0667 14.7512C90.9889 14.0484 90.8023 13.3621 90.5134 12.7169C90.2334 12.0747 89.7867 11.5193 89.2196 11.1081C88.532 10.6555 87.7178 10.4348 86.8958 10.4783C86.37 10.4738 85.8469 10.5543 85.3467 10.7166C84.8231 10.8858 84.3475 11.1776 83.9593 11.5678C83.5008 12.0511 83.1601 12.6337 82.9635 13.2701C82.6861 14.165 82.5594 15.0999 82.589 16.0364L80.1545 14.998C80.1346 13.529 80.446 12.0743 81.0653 10.7421C81.6535 9.51238 82.5769 8.47379 83.7296 7.746C85.0418 6.95428 86.5558 6.56098 88.0875 6.61393C89.2604 6.56755 90.4274 6.80097 91.4923 7.29488C92.3173 7.69253 93.0398 8.27506 93.6031 8.99723C94.0961 9.69087 94.4701 10.4618 94.7096 11.2784C94.9439 12.0128 95.1064 12.7682 95.1948 13.534C95.2629 14.2405 95.3054 14.8193 95.3054 15.2363V25.527H91.1858Z" fill="black"/>
<path d="M104.925 26.0376C103.744 26.0787 102.572 25.818 101.521 25.2801C100.645 24.8233 99.9206 24.1227 99.4352 23.2627C98.9636 22.4145 98.7202 21.4584 98.7287 20.4879C98.7144 19.669 98.865 18.8557 99.1712 18.0961C99.4692 17.3818 99.9366 16.7508 100.533 16.2576C101.241 15.689 102.049 15.2588 102.916 14.9893C103.754 14.7243 104.607 14.5083 105.47 14.3424C106.457 14.1467 107.538 13.9679 108.704 13.8062C109.871 13.6445 111.088 13.4657 112.356 13.27L110.892 14.1211C110.985 13.1097 110.68 12.1019 110.041 11.3123C109.638 10.974 109.171 10.7199 108.668 10.5649C108.165 10.41 107.636 10.3573 107.113 10.41C106.278 10.4123 105.456 10.6106 104.712 10.9888C104.32 11.1909 103.973 11.4722 103.695 11.815C103.417 12.1579 103.212 12.5548 103.095 12.9806L99.35 11.8059C99.7572 10.3066 100.656 8.98755 101.903 8.06077C103.429 7.04606 105.241 6.55054 107.07 6.64782C108.548 6.61662 110.017 6.88894 111.386 7.44793C112.598 7.95357 113.582 8.88641 114.152 10.0695C114.473 10.6873 114.675 11.3601 114.748 12.0528C114.819 12.7855 114.853 13.5212 114.85 14.2573V25.5268H111.258V21.5434L111.854 22.1904C111.148 23.3924 110.149 24.3968 108.951 25.1098C107.707 25.7496 106.324 26.0686 104.925 26.0376ZM105.776 22.7691C106.598 22.7927 107.415 22.6237 108.16 22.2754C108.763 21.9863 109.299 21.5746 109.734 21.0668C110.079 20.6711 110.347 20.2151 110.526 19.7219C110.748 19.148 110.872 18.5409 110.892 17.9259C110.892 17.2535 110.892 16.7002 110.892 16.2831L112.152 16.6576L108.968 17.1683C108.117 17.313 107.326 17.4577 106.687 17.5854C106.111 17.6947 105.543 17.8397 104.985 18.0195C104.557 18.1626 104.15 18.3631 103.776 18.6153C103.47 18.8188 103.212 19.086 103.019 19.3985C102.836 19.7134 102.745 20.0729 102.755 20.4368C102.746 20.862 102.864 21.28 103.095 21.637C103.337 22.0114 103.684 22.3071 104.091 22.4882C104.603 22.6978 105.155 22.7936 105.708 22.7691H105.776Z" fill="black"/>
<path d="M119.701 25.5268V0.50238H123.803V25.5268H119.701Z" fill="#21B8F9"/>
<path d="M129.252 4.34984V0.587646H133.354V4.34984H129.252ZM129.252 25.5271V7.14168H133.354V25.5271H129.252Z" fill="#21B8F9"/>
<path d="M143.431 25.5267L136.758 7.1413H140.861L145.491 20.4706L150.105 7.1413H154.224L147.551 25.5267H143.431Z" fill="#21B8F9"/>
<path d="M164.967 26.0377C163.255 26.077 161.563 25.6598 160.065 24.8291C158.673 24.0426 157.532 22.8804 156.77 21.4753C155.959 19.9587 155.551 18.2585 155.587 16.5386C155.542 14.7255 155.939 12.9287 156.745 11.3039C157.472 9.8866 158.588 8.70569 159.962 7.89918C161.409 7.06215 163.058 6.63819 164.729 6.67348C166.451 6.60014 168.155 7.05129 169.615 7.96726C170.969 8.88846 172.007 10.2053 172.585 11.738C173.258 13.5708 173.508 15.5319 173.317 17.4749H169.249V15.9768C169.249 13.9794 168.897 12.521 168.193 11.6018C167.799 11.126 167.297 10.7522 166.728 10.5121C166.159 10.2721 165.54 10.1729 164.925 10.2229C164.222 10.1687 163.516 10.2816 162.865 10.5523C162.214 10.823 161.637 11.2439 161.18 11.7805C160.274 13.1192 159.843 14.7221 159.954 16.3343C159.857 17.8732 160.29 19.3991 161.18 20.6584C161.613 21.1762 162.163 21.5847 162.784 21.8508C163.405 22.1171 164.08 22.2333 164.754 22.1904C165.671 22.2155 166.577 21.9824 167.368 21.5181C168.117 21.0524 168.709 20.3735 169.07 19.5688L173.122 20.7945C172.465 22.3915 171.325 23.7429 169.862 24.6588C168.397 25.58 166.697 26.0587 164.967 26.0377ZM158.634 17.4749V14.3766H171.317V17.4749H158.634Z" fill="#21B8F9"/>
</g>
<defs>
<clipPath id="clip0_20_257">
<rect width="174.539" height="25.9952" fill="white" transform="translate(0.230469 0.502441)"/>
</clipPath>
</defs>
</svg>
