<svg width="186" height="49" viewBox="0 0 186 49" fill="none" xmlns="http://www.w3.org/2000/svg">
<g clip-path="url(#clip0_20_54)">
<mask id="mask0_20_54" style="mask-type:luminance" maskUnits="userSpaceOnUse" x="0" y="2" width="185" height="40">
<path d="M184.837 2.14844H0.726562V41.8031H184.837V2.14844Z" fill="white"/>
</mask>
<g mask="url(#mask0_20_54)">
<path d="M58.6851 23.4225C58.6851 17.3218 63.6309 12.5283 70.0301 12.5283C73.3965 12.5283 76.8042 14.1494 78.3425 16.5177C78.8001 17.2237 79.007 17.8054 79.007 18.4286C79.0075 18.8437 78.9262 19.2549 78.7677 19.6387C78.6091 20.0223 78.3765 20.3709 78.0831 20.6647C77.7896 20.9583 77.4411 21.1911 77.0575 21.3499C76.674 21.5088 76.2628 21.5904 75.8476 21.5901C74.7582 21.5901 73.9782 21.2589 73.3965 20.5507C72.6077 19.5943 71.4356 19.0952 70.1129 19.0952C67.6203 19.0952 65.9994 20.7992 65.9994 23.4159C65.9994 26.0327 67.6182 27.7453 70.1129 27.7453C70.7314 27.7442 71.3428 27.6141 71.9081 27.3636C72.4735 27.113 72.9804 26.7472 73.3965 26.2898C73.8338 25.8167 74.4024 25.485 75.0294 25.3372C75.6565 25.1893 76.3134 25.2318 76.916 25.4595C77.5186 25.6872 78.0396 26.0897 78.4121 26.6153C78.7847 27.1409 78.9918 27.7657 79.007 28.4098C79.0139 29.0466 78.8254 29.6702 78.4667 30.1964C76.6801 32.8568 73.6884 34.3101 70.0301 34.3101C63.6309 34.3123 58.6851 29.5319 58.6851 23.4225Z" fill="white"/>
<path d="M103.897 23.4225C103.897 29.4906 98.9099 34.3165 92.5522 34.3165C86.1943 34.3165 81.2483 29.5385 81.2483 23.4225C81.2483 17.3065 86.1943 12.5283 92.5522 12.5283C98.9099 12.5283 103.897 17.3501 103.897 23.4225ZM88.5626 23.4225C88.5626 26 90.1837 27.7453 92.5935 27.7453C94.9205 27.7453 96.5829 25.9172 96.5829 23.4225C96.5829 20.9277 94.8791 19.1018 92.5935 19.1018C90.2251 19.1018 88.5626 20.8449 88.5626 23.4225Z" fill="white"/>
<path d="M121.766 15.9014C121.766 17.8123 120.519 19.1021 118.482 19.3875C115.907 19.7622 114.658 21.3484 114.658 24.3335V30.6913C114.658 32.7699 113.12 34.306 111.085 34.306C109.05 34.306 107.511 32.7677 107.511 30.6913V16.1433C107.511 14.0646 109.006 12.5286 110.998 12.5286C111.733 12.5145 112.454 12.7428 113.047 13.1783C113.64 13.6137 114.074 14.2322 114.281 14.9383C115.445 13.5265 116.983 12.6942 118.639 12.6942C120.467 12.6942 121.755 13.9818 121.755 15.8927" fill="white"/>
<path d="M142.501 21.7621V30.741C142.501 32.7782 141.046 34.2729 139.052 34.2729C138.377 34.2904 137.712 34.1062 137.142 33.7438C136.571 33.3813 136.122 32.8569 135.852 32.2378C134.396 33.567 132.365 34.3165 130.034 34.3165C125.755 34.3165 122.844 31.7411 122.844 27.9173C122.844 24.0105 125.877 21.6836 130.988 21.6836H135.346V21.3503C135.346 19.6464 134.183 18.6899 132.145 18.6899C130.971 18.695 129.826 19.0574 128.862 19.7292C128.03 20.2696 127.574 20.4352 126.951 20.4352C126.562 20.4459 126.175 20.3786 125.813 20.2374C125.451 20.096 125.12 19.8836 124.841 19.6124C124.562 19.3412 124.341 19.0169 124.189 18.6587C124.038 18.3004 123.96 17.9153 123.96 17.5264C123.96 16.4871 124.5 15.5328 125.498 14.7419C127.241 13.33 129.903 12.5391 132.936 12.5391C139.087 12.5391 142.495 15.864 142.495 21.7643L142.501 21.7621ZM135.346 26.2112V26.0456H131.989C130.784 26.0456 130.078 26.6274 130.078 27.6252C130.078 28.6646 130.866 29.2463 132.198 29.2463C134.067 29.2463 135.355 28.0414 135.355 26.2134" fill="white"/>
<path d="M146.99 30.6954V5.76312C146.99 3.68451 148.487 2.14844 150.564 2.14844C152.601 2.14844 154.137 3.68669 154.137 5.76312V30.6954C154.137 32.7741 152.599 34.3123 150.564 34.3123C148.529 34.3123 146.99 32.7741 146.99 30.6954Z" fill="white"/>
<path d="M179.488 15.9862C179.473 16.5825 179.316 17.1666 179.031 17.6901L170.386 34.9355C167.935 39.7986 165.316 41.7924 161.327 41.7924C160.164 41.7924 159.165 41.5744 158.459 41.1692C157.982 40.902 157.585 40.5089 157.314 40.0328C157.042 39.5564 156.907 39.0152 156.922 38.4675C156.922 36.6807 158.334 35.3909 160.122 35.3909H160.247C161.868 35.3909 162.907 34.892 163.654 33.273L164.237 31.9854L157.628 17.6901C157.341 17.1666 157.184 16.5825 157.17 15.9862C157.18 15.0745 157.546 14.2028 158.191 13.558C158.836 12.9133 159.707 12.5468 160.619 12.5371C161.278 12.5241 161.924 12.7066 162.48 13.0614C163.033 13.4163 163.471 13.9276 163.735 14.5308L168.265 24.7538L172.921 14.5308C173.191 13.9328 173.63 13.4262 174.184 13.0723C174.736 12.7185 175.38 12.5326 176.037 12.5371C176.949 12.5468 177.82 12.9133 178.465 13.558C179.11 14.2028 179.476 15.0745 179.485 15.9862" fill="white"/>
<path d="M182.401 31.7609C182.397 31.8688 182.351 31.9703 182.273 32.0449C182.196 32.1196 182.092 32.1614 181.984 32.1619C181.904 32.1637 181.825 32.1445 181.756 32.1062C181.686 32.0679 181.628 32.012 181.587 31.9439L180.991 31.0485H180.525V31.7175C180.525 31.835 180.48 31.9478 180.396 32.0309C180.313 32.114 180.201 32.1608 180.083 32.1608C179.964 32.1608 179.851 32.114 179.769 32.0309C179.685 31.9478 179.639 31.835 179.639 31.7175V29.1507C179.638 29.0912 179.647 29.0321 179.67 28.9769C179.691 28.9215 179.725 28.8713 179.766 28.8294C179.809 28.7873 179.859 28.7543 179.914 28.7324C179.969 28.7104 180.028 28.7 180.088 28.7019H180.975C181.753 28.7019 182.282 29.1768 182.282 29.8654C182.286 30.0445 182.246 30.2217 182.167 30.3822C182.086 30.5426 181.97 30.6816 181.825 30.7871L182.273 31.4211C182.348 31.5189 182.392 31.6375 182.397 31.7609H182.401ZM180.521 30.2728H180.975C181.081 30.2728 181.181 30.2309 181.256 30.156C181.331 30.0812 181.373 29.9798 181.373 29.8741C181.373 29.7683 181.331 29.667 181.256 29.5921C181.181 29.5174 181.081 29.4754 180.975 29.4754H180.521V30.2728Z" fill="white"/>
<path d="M184.77 30.4101C184.792 31.1564 184.589 31.8917 184.188 32.522C183.788 33.1522 183.209 33.6488 182.525 33.9479C181.841 34.2471 181.084 34.3355 180.349 34.2014C179.615 34.0675 178.937 33.7173 178.403 33.196C177.869 32.6745 177.503 32.0054 177.35 31.2746C177.199 30.5437 177.27 29.7842 177.552 29.0931C177.834 28.4022 178.316 27.8113 178.937 27.3962C179.557 26.981 180.288 26.7605 181.034 26.7628C181.52 26.7533 182.002 26.8404 182.455 27.0193C182.907 27.1981 183.318 27.465 183.666 27.8043C184.014 28.1437 184.29 28.5489 184.481 28.9963C184.67 29.4436 184.769 29.9243 184.77 30.4101ZM178.208 30.4101C178.208 32.0333 179.408 33.3232 181.055 33.3232C182.656 33.3232 183.835 32.0333 183.835 30.4319C183.835 28.8305 182.656 27.4949 181.034 27.4949C179.411 27.4949 178.201 28.8023 178.201 30.408" fill="white"/>
<path d="M8.02227 33.129C8.39826 33.7798 8.57279 34.5276 8.52381 35.2775C8.47483 36.0276 8.20452 36.7461 7.74709 37.3425C7.28965 37.939 6.66564 38.3863 5.95396 38.6279C5.24228 38.8697 4.4749 38.8948 3.7489 38.7004C3.02288 38.5059 2.37085 38.1005 1.87525 37.5356C1.37965 36.9705 1.06276 36.271 0.964647 35.526C0.866534 34.7808 0.991609 34.0232 1.32405 33.3491C1.6565 32.6751 2.18138 32.1148 2.83231 31.739C3.70493 31.2352 4.74187 31.0987 5.71512 31.3594C6.68838 31.6202 7.51826 32.2566 8.02227 33.129Z" fill="white"/>
<path d="M26.6039 38.9052C25.1124 38.9032 23.6275 38.7054 22.1874 38.3169C17.9067 37.1666 14.2467 34.3858 11.9913 30.5699C9.7358 26.7539 9.06431 22.2066 10.1206 17.9018C11.1769 13.5969 13.8769 9.87679 17.6424 7.53827C21.4079 5.19977 25.9395 4.42881 30.2665 5.39051C30.683 5.47499 31.0785 5.64168 31.4299 5.88084C31.7811 6.11999 32.0813 6.4268 32.3125 6.78332C32.5439 7.13985 32.7017 7.53891 32.7771 7.95719C32.8522 8.37547 32.8432 8.80455 32.7507 9.21934C32.6581 9.63411 32.4838 10.0263 32.2379 10.3729C31.9919 10.7195 31.6792 11.0135 31.3184 11.2378C30.9574 11.4622 30.5553 11.6123 30.1356 11.6794C29.716 11.7464 29.2871 11.7291 28.8743 11.6285C26.872 11.1821 24.7833 11.3283 22.8626 12.0491C20.9421 12.77 19.273 14.0344 18.0591 15.6879C16.845 17.3414 16.1386 19.3127 16.0261 21.3609C15.9136 23.4092 16.3998 25.4459 17.4253 27.2225C18.4509 28.9992 19.9715 30.4388 21.8015 31.3656C23.6315 32.2925 25.6918 32.6666 27.7308 32.4422C29.7699 32.2179 31.6995 31.4048 33.2842 30.1022C34.8688 28.7997 36.04 27.0639 36.6548 25.1067C36.7805 24.7062 36.9838 24.3342 37.2532 24.0123C37.5225 23.6901 37.8526 23.4245 38.2247 23.23C38.976 22.8373 39.8527 22.7592 40.6618 23.0128C41.0623 23.1385 41.4343 23.3418 41.7563 23.6111C42.0782 23.8805 42.3441 24.2105 42.5385 24.5827C42.733 24.9547 42.8522 25.3614 42.8895 25.7796C42.9267 26.1979 42.8812 26.6191 42.7556 27.0198C41.6747 30.4591 39.5269 33.4649 36.6233 35.6018C33.7198 37.7387 30.2112 38.8957 26.6062 38.9052" fill="white"/>
<path d="M41.9904 13.5174C42.3613 14.1596 42.536 14.8962 42.4931 15.6364C42.4503 16.3767 42.1916 17.0882 41.749 17.6832C41.3065 18.2781 40.6995 18.7305 40.0028 18.9845C39.3062 19.2386 38.5505 19.2831 37.829 19.1127C37.6493 19.0449 37.466 18.9875 37.2799 18.9405L37.3626 18.9732C37.3375 18.9646 37.3122 18.9573 37.2863 18.9515C35.7855 18.5512 34.1871 18.7619 32.8413 19.5379C31.4956 20.314 30.5125 21.5916 30.1071 23.0912C30.0992 23.1171 30.0926 23.1432 30.0874 23.1697C30.0874 23.1413 30.0874 23.1108 30.1006 23.0803C30.0486 23.2652 30.0071 23.4529 29.9764 23.6425C29.7636 24.3561 29.3459 24.9917 28.775 25.4698C28.2042 25.9481 27.5053 26.2481 26.7654 26.3325C26.0254 26.4168 25.277 26.282 24.6131 25.9445C23.9492 25.6071 23.3991 25.082 23.0312 24.4345C22.6632 23.7871 22.4936 23.0457 22.5434 22.3026C22.5933 21.5596 22.8604 20.8476 23.3117 20.2551C23.7628 19.6626 24.3781 19.2157 25.0812 18.97C25.7841 18.7243 26.5438 18.6906 27.2659 18.873C27.4097 18.9253 27.5556 18.971 27.7018 19.0125C28.4518 19.2195 29.2356 19.2753 30.0075 19.1766C30.7794 19.0779 31.524 18.8268 32.198 18.4377C32.872 18.0486 33.4618 17.5294 33.9332 16.9102C34.4046 16.2911 34.7482 15.5844 34.9441 14.8313C34.9833 14.6831 35.0161 14.5328 35.0443 14.3803C35.2467 13.6612 35.6565 13.0178 36.2226 12.5305C36.7888 12.0433 37.4859 11.7337 38.2272 11.6407C38.9683 11.5477 39.7205 11.6753 40.3894 12.0076C41.0584 12.3398 41.6146 12.862 41.9883 13.5087" fill="white"/>
</g>
</g>
<defs>
<clipPath id="clip0_20_54">
<rect width="184.547" height="47.2806" fill="white" transform="translate(0.726562 0.859741)"/>
</clipPath>
</defs>
</svg>
